<svg aria-hidden="true" style="position:absolute;width:0;height:0"
    xmlns="http://www.w3.org/2000/svg" overflow="hidden">
    <defs>
        <symbol id="instagram" viewBox="0 0 32 32">
            <path d="M23.258 13.004c-.034-.773-.159-1.304-.338-1.765a3.557 3.557 0 00-.841-1.29 3.589 3.589 0 00-1.287-.838c-.463-.179-.992-.304-1.764-.338-.779-.037-1.026-.046-3.001-.046s-2.222.009-2.998.043c-.773.034-1.304.159-1.764.338a3.557 3.557 0 00-1.29.841 3.589 3.589 0 00-.838 1.287c-.179.463-.304.992-.338 1.764-.037.779-.046 1.026-.046 3.001s.009 2.222.043 2.998c.034.773.159 1.304.338 1.765.185.489.472.926.841 1.29.364.369.804.656 1.287.838.463.179.992.304 1.765.338.776.034 1.023.043 2.998.043s2.222-.008 2.998-.043c.773-.034 1.304-.159 1.764-.338a3.72 3.72 0 002.128-2.128c.179-.463.304-.992.338-1.765.034-.776.043-1.023.043-2.998s-.003-2.222-.037-2.998zm-1.309 5.938c-.031.71-.151 1.094-.25 1.35a2.409 2.409 0 01-1.381 1.381c-.256.099-.642.219-1.35.25-.767.034-.997.043-2.938.043s-2.174-.008-2.938-.043c-.71-.031-1.094-.15-1.35-.25a2.228 2.228 0 01-.835-.543 2.264 2.264 0 01-.543-.835c-.1-.256-.219-.642-.25-1.35-.034-.767-.043-.997-.043-2.938s.008-2.174.043-2.938c.031-.71.15-1.094.25-1.35.117-.315.301-.602.546-.835.236-.242.52-.426.835-.543.256-.099.642-.219 1.35-.25.767-.034.997-.043 2.938-.043 1.944 0 2.174.008 2.938.043.71.031 1.094.151 1.35.25.315.116.602.301.835.543.242.236.426.52.543.835.099.256.219.642.25 1.35.034.767.043.997.043 2.938s-.009 2.168-.043 2.935z"/>
            <path d="M16.027 12.265a3.737 3.737 0 000 7.472 3.737 3.737 0 000-7.472zm0 6.16a2.424 2.424 0 110-4.849 2.424 2.424 0 010 4.849zm4.757-6.308a.872.872 0 11-1.744 0 .872.872 0 011.744 0z"/>
        </symbol>
        <symbol id="twitter" viewBox="0 0 32 32">
            <path d="M23.273 11.49a6.248 6.248 0 01-1.718.471 2.967 2.967 0 001.312-1.648 5.963 5.963 0 01-1.891.722 2.981 2.981 0 00-5.158 2.039c0 .236.02.464.069.68a8.439 8.439 0 01-6.146-3.119 2.985 2.985 0 00.917 3.985 2.943 2.943 0 01-1.347-.367v.033a2.996 2.996 0 002.389 2.93 2.992 2.992 0 01-.782.098 2.64 2.64 0 01-.565-.051 3.01 3.01 0 002.786 2.077 5.991 5.991 0 01-3.697 1.272 5.59 5.59 0 01-.714-.041 8.393 8.393 0 004.575 1.338c5.487 0 8.487-4.545 8.487-8.485 0-.132-.005-.259-.011-.385a5.95 5.95 0 001.495-1.548z"/>
        </symbol>
        <symbol id="facebook" viewBox="0 0 32 32">
            <path d="M18.422 11.142h1.328V8.829a17.317 17.317 0 00-1.935-.102c-1.915 0-3.226 1.204-3.226 3.418v2.037h-2.113v2.585h2.113v6.505h2.59v-6.505h2.027l.322-2.585h-2.35v-1.781c.001-.747.202-1.259 1.243-1.259z"/>
        </symbol>
        <symbol id="linkedin" viewBox="0 0 32 32">
            <path d="M23.269 23.273v-.001h.004v-5.335c0-2.61-.562-4.62-3.613-4.62-1.467 0-2.451.805-2.853 1.568h-.042v-1.324h-2.893v9.711h3.012v-4.809c0-1.266.24-2.49 1.808-2.49 1.545 0 1.568 1.445 1.568 2.572v4.728h3.009zM8.967 13.562h3.016v9.711H8.967v-9.711zm1.507-4.835c-.964 0-1.747.782-1.747 1.747s.782 1.763 1.747 1.763c.964 0 1.747-.799 1.747-1.763s-.783-1.747-1.747-1.747z"/>
        </symbol>
        <symbol id="envelope" viewBox="0 0 43 32">
            <path d="M38.667 0H4C1.794 0 0 1.794 0 4v24c0 2.206 1.794 4 4 4h34.667c2.206 0 4-1.794 4-4V4c0-2.206-1.794-4-4-4zm0 2.667c.181 0 .353.038.511.103L21.334 18.236 3.49 2.77a1.32 1.32 0 01.511-.103h34.667zm0 26.666H4A1.334 1.334 0 012.667 28V5.587L20.46 21.008a1.335 1.335 0 001.748 0L40.001 5.587V28c0 .736-.598 1.333-1.333 1.333z"/>
        </symbol>
        <symbol id="smartphone" viewBox="0 0 20 32">
            <path d="M17 0H3C1.346 0 0 1.346 0 3v26c0 1.654 1.346 3 3 3h14c1.654 0 3-1.346 3-3V3c0-1.654-1.346-3-3-3zM3 2h14a1 1 0 011 1v21H2V3a1 1 0 011-1zm14 28H3a1 1 0 01-1-1v-3h16v3a1 1 0 01-1 1z"/>
            <path d="M4.707 27.478c.391.365.391.956 0 1.321s-1.024.365-1.414 0c-.391-.365-.391-.956 0-1.321s1.024-.365 1.414 0z"/>
        </symbol>
        <symbol id="antenna" viewBox="0 0 32 32">
            <path d="M30.773 22.098l-8.443-8.505.937-4.615c.242.094.499.144.758.146h.006a2.159 2.159 0 10-2.008-1.435l-4.96.605L8.972.161a.534.534 0 00-.377-.16.532.532 0 00-.373.155L6.709 1.66a.534.534 0 000 .754l.814.826a14.943 14.943 0 002.519 17.663.513.513 0 00.146.098c-.034.18-.051.364-.052.547v6.187h-6.4a2.67 2.67 0 00-2.667 2.667v1.067c0 .295.239.533.533.533h24.533a.533.533 0 00.533-.533v-1.067a2.67 2.67 0 00-2.667-2.667h-6.4v-2.742a15.09 15.09 0 003.049.32 14.854 14.854 0 007.04-1.783l.818.823a.534.534 0 00.377.16.532.532 0 00.373-.155l1.512-1.504a.534.534 0 000-.754zM23.28 6.233a1.066 1.066 0 11.752 1.822h-.003a1.067 1.067 0 01-.747-1.823h-.002zm-1.256 3.505l-.598 2.946-1.175-1.182 1.774-1.763zm-.606-.902l-1.92 1.909-1.485-1.493 3.405-.415zM24.004 28.8a1.6 1.6 0 011.6 1.6v.533H2.137V30.4a1.6 1.6 0 011.6-1.6h20.267zm-7.467-2.133v1.067h-5.333v-1.067h5.333zM11.204 25.6v-4.053c0-1.294 1.196-2.347 2.667-2.347s2.667 1.053 2.667 2.347V25.6h-5.333zm6.4-1.696v-2.357c0-1.882-1.675-3.413-3.733-3.413a3.8 3.8 0 00-3.281 1.786A13.87 13.87 0 018.311 4.033l18.602 18.708a13.818 13.818 0 01-9.309 1.163zm11.289-.684L7.836 2.039l.755-.752 7.935 7.98c.004 0 .006.007.01.01l13.115 13.191-.757.752z"/>
            <path fill="#2196f3" d="M13.876 20.267h-.005a1.6 1.6 0 10-.004 3.2h.005a1.6 1.6 0 10.004-3.2zm.373 1.978a.533.533 0 11-.378-.911.534.534 0 01.374.911h.005z"/>
        </symbol>
        <symbol id="astronaut" viewBox="0 0 32 32">
            <path fill="#2196f3" d="M31.974 4.524a.534.534 0 00-.43-.363l-1.91-.278-.855-1.731c-.179-.365-.777-.365-.956 0l-.855 1.731-1.91.278a.535.535 0 00-.296.91l1.383 1.348-.326 1.903c-.034.2.048.402.212.522a.53.53 0 00.562.04l1.709-.899 1.709.899a.536.536 0 00.775-.563l-.326-1.903 1.383-1.348a.536.536 0 00.135-.547zm-2.463 1.327a.534.534 0 00-.153.472l.191 1.114-1-.526a.533.533 0 00-.498 0l-1.001.526.191-1.114a.534.534 0 00-.153-.472l-.81-.789 1.119-.163a.532.532 0 00.402-.292l.5-1.013.5 1.013a.535.535 0 00.402.292l1.119.163-.809.789zm-3.377 14.671h-1.067v1.067h1.067v-1.067zm0 2.134h-1.067v1.067h1.067v-1.067zm1.066-1.067h-1.067v1.067H27.2v-1.067zm-2.133 0H24v1.067h1.067v-1.067zm-2.667 4.8h-1.067v1.067H22.4v-1.067zm0 2.133h-1.067v1.067H22.4v-1.067zm1.067-1.066H22.4v1.067h1.067v-1.067zm-2.134 0h-1.067v1.067h1.067v-1.067zM16 24.256h-1.067v1.067H16v-1.067zm0 2.133h-1.067v1.067H16v-1.067zm1.067-1.067H16v1.067h1.067v-1.067zm-2.134 0h-1.067v1.067h1.067v-1.067zm-9.066-19.2H4.8v1.067h1.067V6.122zm0 2.133H4.8v1.067h1.067V8.255z"/>
            <path fill="#2196f3" d="M6.933 7.189H5.866v1.067h1.067V7.189zm-2.133 0H3.733v1.067H4.8V7.189z"/>
            <path d="M24.715 14.159a1.775 1.775 0 00-1.188-.705 1.778 1.778 0 00-1.34.352l-1.252.96-1.898 1.417-1.358-.541c2.421-1.086 4.114-3.508 4.114-6.32 0-3.823-3.123-6.933-6.961-6.933s-6.961 3.11-6.961 6.933a6.86 6.86 0 001.12 3.758l-2.764-.024h-.005c-.009 0-.015.004-.023.005a.515.515 0 00-.155.031l-.038.013c-.006.003-.013.003-.019.006l-3.233 1.596-.001.001-1.893.911a.397.397 0 00-.063.035 1.779 1.779 0 00-.598 2.295c.22.429.595.745 1.056.889a1.776 1.776 0 001.378-.128l1.388-.738 2.264-1.169 1.357-.008L2.2 22.211l-.002.001-1.339 1.333c-.316.315-.49.732-.49 1.178s.174.863.49 1.179c.325.323.752.485 1.179.485s.854-.162 1.18-.485l1.314-1.309 1.741-1.3.901.897-1.762 1.754-.002.001-1.339 1.333c-.316.315-.49.732-.49 1.178s.174.863.49 1.179c.325.323.753.485 1.18.485s.855-.162 1.18-.485l3.482-3.467.001-.002 1.01-1-.004-.004c.006-.006.015-.009.022-.015l5.166-5.658 3.471.494a.52.52 0 00.262-.033c.018-.006.033-.015.05-.023.019-.01.039-.015.058-.027l3.213-2.133c.012-.008.018-.021.029-.029.013-.01.029-.014.041-.026l1.271-1.191c.662-.62.753-1.635.212-2.362zM2.13 17.77a.714.714 0 01-.558.052.717.717 0 01-.213-1.26l1.314-.632.449 1.313-.992.527zm3.498-1.828l-1.548.8-.439-1.283 2.027-1.001-.04 1.484zm15.099-6.62a5.79 5.79 0 01-.599 2.559l-4.181-1.899a1.863 1.863 0 00-.788-1.388l1.464-4.86c2.378.756 4.105 2.974 4.105 5.588zm-11.789 0c0-3.235 2.644-5.867 5.894-5.867.253 0 .5.021.745.052l-1.432 4.754c-.019-.001-.037-.006-.057-.006-1.033 0-1.873.837-1.873 1.867s.84 1.867 1.873 1.867c.694 0 1.294-.383 1.618-.945l3.862 1.755a5.894 5.894 0 01-4.737 2.39c-3.25 0-5.894-2.632-5.894-5.867zm5.956.8c0 .441-.362.8-.806.8s-.806-.359-.806-.8c0-.441.362-.8.806-.8s.806.359.806.8zM2.465 25.146a.608.608 0 01-.854.001.592.592 0 010-.844l.962-.959.851.848-.959.955zm3.214 3.734a.608.608 0 01-.855.001.592.592 0 010-.844l.963-.959.852.848-.96.955zm3.481-3.469l-.002.001-1.765 1.76-.852-.848 1.763-1.755.002-.001c.04-.04.065-.088.09-.135.007-.014.02-.026.026-.04.017-.041.019-.085.026-.129.003-.025.014-.047.014-.073 0-.036-.013-.07-.02-.106-.006-.032-.006-.065-.019-.095a.55.55 0 00-.091-.138c-.01-.012-.014-.027-.025-.038h-.001l-.001-.002-1.607-1.6c-.017-.017-.039-.024-.058-.038a.507.507 0 00-.087-.058.515.515 0 00-.093-.033.507.507 0 00-.103-.02.5.5 0 00-.095.005.53.53 0 00-.104.02.477.477 0 00-.094.045c-.02.011-.042.015-.061.029L4.23 23.486l-.901-.897 2.399-2.386 4.361 4.289-.928.919zm6.819-7.017c-.015-.002-.03.004-.045.003a.556.556 0 00-.3.075.492.492 0 00-.083.061c-.013.011-.028.017-.04.029l-4.698 5.146-4.328-4.257 2.833-2.818a.534.534 0 00-.379-.911v-.001l-2.219.013.028-1.607 3.104.027a6.947 6.947 0 004.981 2.101c.437 0 .864-.045 1.279-.123.04.032.079.065.13.085l2.41.96.152.758.178.885-3.003-.427zm4.041.178l-.313-1.558 1.446-1.08.947 1.257-2.08 1.381zm3.754-2.831l-.838.785-.931-1.236.831-.637a.735.735 0 01.543-.143.718.718 0 01.48.284.713.713 0 01-.085.947z"/>
            <path d="M13.602 18.544l-2.143-2.133a.534.534 0 00-.753 0l-2.142 2.133a.537.537 0 000 .756l2.142 2.133a.536.536 0 00.753 0l2.143-2.133a.535.535 0 000-.756zm-2.519 1.759l-1.387-1.381 1.387-1.381 1.387 1.381-1.387 1.381zm6.081-15.232l-.258 1.036c.071.018 1.738.452 1.738 2.149h1.067c0-2.017-1.666-2.965-2.547-3.185zm2.547 4.251h-1.067v1.067h1.067V9.322z"/>
        </symbol>
        <symbol id="clock" viewBox="0 0 32 32">
            <path d="M31.297 15.301C31.295 6.849 24.442-.002 15.989 0S.686 6.855.688 15.308a15.304 15.304 0 0010.649 14.576.668.668 0 00.53-.065.637.637 0 00.283-.356l3.865-12.25a1.912 1.912 0 10-.84-3.635l-5.106-5.107a.637.637 0 00-.902.902l5.103 5.109a1.876 1.876 0 00.536 2.309l-3.683 11.673C3.845 25.783.119 17.71 2.8 10.432S13.554-.572 20.832 2.109c7.278 2.681 11.004 10.754 8.324 18.032a14.042 14.042 0 01-7.462 7.973l-.398-1.874a.638.638 0 00-1.048-.344l-3.837 3.426a.637.637 0 00.231 1.084l4.899 1.563a.638.638 0 00.819-.74l-.391-1.839a15.255 15.255 0 009.329-14.089zm-15.305-.637a.638.638 0 110 1.277.638.638 0 010-1.277zm2.101 14.864l2.184-1.948.603 2.84-2.787-.892z"/>
            <path fill="#2196f3" d="M15.354 3.185V4.46a.638.638 0 101.276 0V3.185a.638.638 0 00-1.276 0zM3.876 14.664a.638.638 0 000 1.276h1.275a.638.638 0 100-1.276H3.876zm24.232 1.275a.638.638 0 100-1.276h-1.275a.638.638 0 000 1.276h1.275z"/>
        </symbol>
        <symbol id="diagram" viewBox="0 0 32 32">
            <path fill="#2196f3" d="M14.926 14.965h1.066v4.798h-1.066v-4.797zm4.264 2.132h1.066v2.665H19.19v-2.665zm-8.529 1.599h1.066v1.066h-1.066v-1.066zm-3.198-.533h1.066v1.599H7.463v-1.599z"/>
            <path d="M1.599 28.291h25.587a1.6 1.6 0 001.599-1.599V24.56a1.6 1.6 0 00-1.599-1.599h-.533V9.668L29.681 6.8a1.608 1.608 0 10-.746-.763L26.654 8.2V6.97a1.6 1.6 0 00-1.599-1.599H3.733A1.6 1.6 0 002.134 6.97v15.992h-.533a1.6 1.6 0 00-1.599 1.599v2.132a1.6 1.6 0 001.599 1.599zM30.384 4.837a.533.533 0 110 1.067.533.533 0 010-1.067zM3.198 6.969c0-.294.239-.533.533-.533h21.322c.294 0 .533.239.533.533v2.239l-1.066 1.013V8.035a.533.533 0 00-.533-.533H4.797a.533.533 0 00-.533.533v13.326c0 .294.239.533.533.533h19.19a.533.533 0 00.533-.533v-9.674l1.066-1.01v12.284H3.198V6.969zm4.798 6.93a1.598 1.598 0 101.107 2.749l1.853.93a.532.532 0 00.636-.123l3.939-4.431 3.872 2.901a.533.533 0 00.686-.039l3.365-3.188v8.131H5.33V8.569h18.124v2.66l-3.771 3.572-3.904-2.927a.533.533 0 00-.718.072l-3.993 4.493-1.493-.746c.011-.064.018-.129.02-.193a1.6 1.6 0 00-1.599-1.599zm.533 1.599a.533.533 0 11-1.067 0 .533.533 0 011.067 0zm3.198 8.528h5.331v.533a.533.533 0 01-.533.533h-4.264a.533.533 0 01-.533-.533v-.533zm-10.661.534c0-.294.239-.533.533-.533h9.062v.533a1.6 1.6 0 001.599 1.599h4.264a1.6 1.6 0 001.599-1.599v-.533h9.062c.294 0 .533.239.533.533v2.132a.533.533 0 01-.533.533H1.598a.533.533 0 01-.533-.533V24.56z"/>
        </symbol>
        <symbol id="client-logo-1" viewBox="0 0 170 90">
            <path d="M69 20l7.308 6.918h20.384v19.298L104 53.134V20H69z"/>
            <path d="M63 26.627v32.187h34V46.02L76.523 26.634 63 26.626zm27.523 27.479H68.38V32.457h1.565V52.64h20.578v1.465zM72.791 64.784l.818-1.685h.684L73.1 65.345v1.309h-.62v-1.309L71.287 63.1h.686l.818 1.685zm3.51 1.042h-1.376l-.288.828h-.642l1.342-3.555h.555l1.345 3.555h-.645l-.29-.828zm-1.203-.498h1.03l-.515-1.475-.515 1.475zm3.638.366c0-.164.045-.315.134-.451.09-.139.266-.302.53-.491a2.265 2.265 0 01-.29-.444.877.877 0 01-.081-.354c0-.279.084-.498.254-.66.169-.162.397-.244.683-.244.26 0 .47.077.635.23.166.151.25.34.25.564a.785.785 0 01-.113.41 1.34 1.34 0 01-.369.371l-.242.176.687.81c.099-.195.148-.412.148-.651h.516c0 .437-.103.796-.308 1.076l.522.618h-.688l-.2-.237a1.47 1.47 0 01-.909.286c-.351 0-.633-.093-.844-.279a.932.932 0 01-.315-.73zm1.177.535c.2 0 .387-.067.561-.2l-.776-.916-.076.054c-.195.148-.293.317-.293.508 0 .164.053.298.159.4a.585.585 0 00.425.154zm-.328-2.29c0 .137.084.308.252.515l.27-.185.077-.062a.44.44 0 00.151-.344.311.311 0 00-.105-.236.37.37 0 00-.266-.1.348.348 0 00-.276.117.432.432 0 00-.103.295zm6.458 1.558c-.036.379-.176.675-.42.888-.244.212-.569.318-.974.318-.283 0-.533-.067-.75-.2a1.332 1.332 0 01-.498-.574 2.065 2.065 0 01-.183-.862v-.332c0-.335.06-.63.178-.886.12-.256.29-.453.51-.591a1.43 1.43 0 01.772-.208c.392 0 .708.107.948.32.239.213.378.514.417.903h-.615c-.03-.255-.104-.439-.225-.551-.119-.114-.294-.171-.525-.171-.268 0-.475.098-.62.295-.143.196-.216.483-.22.862v.315c0 .384.069.677.206.879.138.202.34.303.605.303.242 0 .425-.055.547-.164.122-.109.2-.29.232-.544h.615zm3.391-.528c0 .349-.06.655-.18.918a1.384 1.384 0 01-.518.606c-.223.14-.48.21-.772.21-.288 0-.545-.07-.771-.21a1.405 1.405 0 01-.523-.603 2.124 2.124 0 01-.185-.901v-.2c0-.347.06-.653.183-.918.124-.266.297-.468.52-.608.225-.142.482-.213.772-.213.29 0 .546.07.769.21.224.139.397.339.52.6.122.261.184.565.185.912v.197zm-.618-.185c0-.394-.075-.696-.224-.906a.728.728 0 00-.632-.315.731.731 0 00-.628.315c-.15.208-.226.504-.23.886v.205c0 .39.076.693.228.906.153.213.364.32.634.32.274 0 .484-.104.63-.313.148-.208.222-.512.222-.913v-.185z"/>
        </symbol>
        <symbol id="client-logo-2" viewBox="0 0 170 90">
            <path d="M81.977 21.934h.137c.253 0 .526.026.796.049 1.193.084 2.377.262 3.542.534v-2.863a21.13 21.13 0 00-3.655-.583A29.224 29.224 0 0081.319 19h-.427c-2.475.01-4.94.327-7.337.946-2.73.68-5.35 1.747-7.783 3.166v28.397a31.633 31.633 0 017.42-2.892 32.36 32.36 0 016.227-.956h.084a23.25 23.25 0 011.065-.03v-2.91a34.329 34.329 0 00-8.095 1.076c-.98.255-1.925.53-2.813.834l-1.012.344V24.833l.433-.208a28.276 28.276 0 0110.516-2.683.63.63 0 01.09 0c.403-.02.808-.03 1.205-.03h.455c.21.005.42.01.63.023z"/>
            <path d="M89.11 24.933a25.925 25.925 0 01-4.234-.344 22.97 22.97 0 01-1.323-.267v28.072c1.82.45 3.69.67 5.565.656a29.943 29.943 0 007.337-.944 29.809 29.809 0 007.786-3.166V21.05a31.765 31.765 0 01-7.417 2.893c-2.52.648-5.111.98-7.713.99zm11.225.485l1.012-.34v22.148l-.432.209a27.779 27.779 0 01-5.174 1.859c-2.163.56-4.386.847-6.62.857-.668 0-1.33-.028-1.973-.084l-.693-.061V27.228l.807.054a28.38 28.38 0 001.854.056 34.263 34.263 0 008.406-1.078 44.86 44.86 0 002.813-.842zM67.737 61.212a1.492 1.492 0 00-1.126-.455 1.672 1.672 0 00-.65.122 1.462 1.462 0 00-.832.842c-.08.2-.119.413-.116.628v3.794c-.01.267.042.533.149.778.09.195.219.368.38.509.151.127.329.22.52.27.185.051.376.078.567.078.211.002.42-.043.612-.132a1.599 1.599 0 00.96-1.465v-.424h-.992v.338a.883.883 0 01-.059.338.609.609 0 01-.144.214.697.697 0 01-.415.145.503.503 0 01-.465-.204.898.898 0 01-.132-.508v-3.538c-.006-.196.036-.39.122-.567a.507.507 0 01.485-.229.527.527 0 01.443.214.807.807 0 01.165.509v.328h.981v-.387a1.788 1.788 0 00-.121-.664 1.564 1.564 0 00-.332-.534zm5.892-.042a1.765 1.765 0 00-1.128-.418c-.202 0-.403.037-.592.107A1.558 1.558 0 0071 61.7c-.1.231-.15.482-.145.735v3.638c-.006.256.043.51.145.746.09.195.22.369.384.508.152.14.33.25.524.32.19.07.39.106.592.107a1.714 1.714 0 001.128-.427c.158-.142.285-.315.374-.508.102-.235.151-.49.144-.746v-3.639a1.77 1.77 0 00-.144-.734 1.644 1.644 0 00-.374-.532zm-.463 4.904a.654.654 0 01-.197.527.726.726 0 01-.934 0 .652.652 0 01-.197-.527v-3.639a.656.656 0 01.197-.526.726.726 0 01.934 0 .651.651 0 01.197.526v3.64zm8.201 1.626v-6.89h-.953l-1.253 3.647h-.017l-1.263-3.646h-.943v6.888h.984v-4.19h.017l.964 2.962h.491l.972-2.962h.017v4.19h.984zm5.591-6.406c-.151-.17-.343-.3-.556-.377a2.184 2.184 0 00-.714-.107h-1.462v6.89h.981v-2.691h.506a1.8 1.8 0 00.886-.188 1.43 1.43 0 00.539-.527c.113-.183.19-.387.225-.6a4.9 4.9 0 00.053-.783c.01-.33-.023-.662-.096-.984a1.465 1.465 0 00-.362-.633zm-.506 2.1a.868.868 0 01-.091.359.552.552 0 01-.253.241 1.006 1.006 0 01-.463.087h-.448v-2.342h.506a.943.943 0 01.443.086.557.557 0 01.23.254 1 1 0 01.086.384v.458c0 .16.01.326 0 .473h-.01zm5.156-2.584h-.805l-1.518 6.89h.982l.288-1.48h1.338l.289 1.48h.981l-1.555-6.89zm-.906 4.471l.483-2.497h.018l.48 2.497h-.981zm7.248-.321h-.018l-1.483-4.15h-.943v6.89h.981v-4.143h.02l1.5 4.142h.924v-6.888h-.981v4.15zm5.998-4.15l-.79 2.74h-.02l-.789-2.74h-1.04l1.348 3.978v2.911h.982v-2.911l1.348-3.977h-1.039zM65 69.644h.473v1.328h.321v-1.328h.47v-.272H65v.272zm3.977-.272l-.62 1.6h.341l.132-.364h.638l.136.364h.35l-.636-1.6h-.341zm-.05.967l.217-.593.217.593h-.435zm3.981.043h.37v.206a.613.613 0 01-.38.135.404.404 0 01-.34-.153.67.67 0 01-.118-.417c0-.356.154-.534.46-.534a.337.337 0 01.362.255l.316-.061c-.068-.313-.293-.47-.678-.47a.804.804 0 00-.559.205.78.78 0 00-.23.615.872.872 0 00.205.6.776.776 0 00.607.234.96.96 0 00.678-.254v-.63h-.693v.27zm4.015-1.01h-.324v1.6h1.12V70.7h-.796v-1.328zm3.394 0h-.323v1.6h.323v-1.6zm3.319 1.068l-.655-1.068h-.313v1.6h.3v-1.045l.643 1.045h.322v-1.6h-.297v1.069zm3.001-.173h.797v-.272h-.797v-.35h.857v-.273h-1.181v1.6h1.214V70.7h-.89v-.433zm7.275-.264h-.63v-.63h-.321v1.599h.321v-.7h.63v.7h.322v-1.6h-.322v.631zm3.018.264h.8v-.272h-.8v-.35h.86v-.273h-1.18v1.6h1.212V70.7h-.89v-.433zm4.093.001c.279-.044.42-.191.42-.445a.38.38 0 00-.157-.356.901.901 0 00-.468-.094h-.678v1.599h.322v-.669h.063a.433.433 0 01.2.036.336.336 0 01.114.117l.349.508h.384l-.195-.312a1.11 1.11 0 00-.354-.384zm-.324-.222h-.237v-.401h.253a.838.838 0 01.326.038.212.212 0 01.046.255.213.213 0 01-.061.07.915.915 0 01-.327.038zm3.411.221h.796v-.272h-.796v-.35h.86v-.273h-1.184v1.6H105V70.7h-.89v-.433z"/>
        </symbol>
        <symbol id="client-logo-3" viewBox="0 0 170 90">
            <path d="M71.346 65.795a.118.118 0 01.08.034l.205.216c-.16.174-.357.314-.579.409a2.07 2.07 0 01-.82.147 2.011 2.011 0 01-.772-.137 1.672 1.672 0 01-.957-.986 2.163 2.163 0 01-.13-.767 2.016 2.016 0 01.14-.77c.09-.222.226-.425.4-.597.175-.17.385-.302.617-.39.253-.094.523-.14.794-.137.253-.006.504.036.739.125.203.084.39.2.552.345l-.172.23a.173.173 0 01-.043.042.11.11 0 01-.07.018.157.157 0 01-.075-.025l-.092-.061-.129-.079a1.401 1.401 0 00-.406-.137 1.642 1.642 0 00-.306-.024 1.533 1.533 0 00-.571.102 1.29 1.29 0 00-.448.29c-.128.133-.227.29-.29.46a1.668 1.668 0 00-.106.608c-.003.21.033.42.106.618.062.169.16.325.285.458.118.125.264.222.427.284.168.067.348.1.53.099.105.001.21-.005.314-.02.17-.02.332-.076.475-.164.073-.046.14-.096.204-.152a.153.153 0 01.097-.04zm5.941-1.085c.003.26-.044.52-.139.763a1.655 1.655 0 01-.387.592 1.754 1.754 0 01-.608.388 2.296 2.296 0 01-1.564 0 1.778 1.778 0 01-.605-.39 1.74 1.74 0 01-.39-.597 2.166 2.166 0 010-1.527 1.78 1.78 0 01.39-.6 1.78 1.78 0 01.605-.375 2.258 2.258 0 011.564 0c.228.088.435.22.607.39.17.17.301.37.388.59.096.245.143.505.14.767zm-.54 0a1.759 1.759 0 00-.098-.612 1.208 1.208 0 00-.71-.747 1.658 1.658 0 00-1.137 0 1.207 1.207 0 00-.712.747c-.13.4-.13.827 0 1.225a1.203 1.203 0 00.712.745c.367.131.77.131 1.137 0 .166-.063.314-.161.435-.286.123-.134.217-.29.275-.459.07-.197.102-.404.098-.612zm4.593.643l.055.137a2.56 2.56 0 01.059-.137 1.28 1.28 0 01.067-.135l1.314-2.276c.026-.04.05-.064.075-.071a.323.323 0 01.108-.012h.388v3.702h-.46V63.725a1.13 1.13 0 010-.128l-1.322 2.309a.202.202 0 01-.078.084.216.216 0 01-.113.03h-.074a.21.21 0 01-.113-.03.2.2 0 01-.078-.084l-1.36-2.324v2.973h-.445V62.86h.388a.323.323 0 01.108.012.15.15 0 01.072.071l1.343 2.279a.812.812 0 01.067.132zm4.947-.183v1.386h-.514V62.86h1.147a2.25 2.25 0 01.64.08c.167.045.321.124.453.23.114.1.202.225.257.363.06.151.09.312.088.473.002.163-.03.323-.096.473a1.013 1.013 0 01-.277.37 1.27 1.27 0 01-.456.245c-.2.061-.41.09-.62.086l-.622-.01zm0-.398h.622c.136.002.27-.017.4-.056a.843.843 0 00.287-.16.651.651 0 00.175-.244.768.768 0 00.062-.312.677.677 0 00-.052-.3.707.707 0 00-.18-.253 1.033 1.033 0 00-.692-.199h-.622v1.524zm6.914 1.789h-.406a.181.181 0 01-.114-.034.226.226 0 01-.066-.086l-.35-.894h-1.757l-.363.894a.2.2 0 01-.064.083.181.181 0 01-.116.037h-.406l1.543-3.703h.535l1.564 3.703zm-2.546-1.375h1.45l-.612-1.507a2.6 2.6 0 01-.116-.348l-.059.194a1.84 1.84 0 01-.056.157l-.607 1.504zm4.768-2.311c.031.017.058.04.078.067l2.25 2.79v-2.874h.46v3.703h-.257a.23.23 0 01-.105-.022.283.283 0 01-.082-.069l-2.248-2.788c.002.042.002.085 0 .127v2.753h-.46v-3.704h.272c.032 0 .063.005.092.017zm6.58 2.213v1.47h-.515v-1.47l-1.422-2.23h.46a.174.174 0 01.111.032.319.319 0 01.07.084l.889 1.438c.036.061.067.118.093.172.026.053.046.105.064.156l.067-.159c.025-.058.054-.115.088-.169l.877-1.448a.362.362 0 01.067-.079.16.16 0 01.11-.036h.466l-1.425 2.24zm-20.917-8.444c.224.027.45.05.68.069 3.47-1.48 6.406-3.9 8.44-6.96a17.782 17.782 0 002.998-10.246l-3.825-3.644a20.22 20.22 0 01-1.05 11.512c-1.465 3.67-3.973 6.88-7.243 9.27z"/>
            <path d="M79.72 56.475l.103.02c3.495-2.382 6.159-5.707 7.648-9.546a19.54 19.54 0 00.707-11.99l-5.448-5.19a24.082 24.082 0 012.557 13.768c-.532 4.728-2.463 9.214-5.567 12.938zm18.476-12.689c-.925 3.98-3.173 7.568-6.41 10.234a20.218 20.218 0 01-3.045 2.082 18.187 18.187 0 007.08-3.813 17.09 17.09 0 004.585-6.4l-2.21-2.103z"/>
            <path d="M97.33 43.2l-3.147-2.997a18.474 18.474 0 01-2.952 9.67c-1.873 2.916-4.532 5.299-7.699 6.903h.016c.706 0 1.41-.04 2.111-.12a19.338 19.338 0 007.611-5.33 18.092 18.092 0 004.06-8.126zM80.176 27.58L76.423 24c-3.355 1.235-6.24 3.406-8.278 6.23-2.038 2.823-3.135 6.167-3.145 9.593.013 3.787 1.35 7.46 3.801 10.441 2.451 2.98 5.875 5.097 9.731 6.015 3.442-3.995 5.457-8.932 5.753-14.093.295-5.161-1.144-10.277-4.11-14.606zM106 42.649c-.014-4.492-1.893-8.797-5.227-11.973-3.334-3.177-7.852-4.967-12.567-4.98a18.379 18.379 0 00-6.371 1.13l22.977 21.89A16.093 16.093 0 00106 42.65z"/>
        </symbol>
        <symbol id="client-logo-4" viewBox="0 0 170 90">
            <path d="M57.402 36.83h-.003c-2.262 0-4.096 1.788-4.096 3.992v.003c0 2.204 1.834 3.992 4.096 3.992h.003c2.262 0 4.096-1.788 4.096-3.992v-.003c0-2.204-1.834-3.991-4.096-3.991zm30.235-1.276c-.007-3.062-1.258-5.997-3.48-8.162-2.22-2.165-5.232-3.385-8.374-3.392-3.143.006-6.156 1.225-8.379 3.39-2.223 2.166-3.474 5.102-3.48 8.164V52.44s23.71-2.573 23.713-16.883v-.003zM45 57.982a7.96 7.96 0 002.422 5.68 8.384 8.384 0 005.827 2.362 8.384 8.384 0 005.826-2.361 7.96 7.96 0 002.423-5.678v-11.75S45 48.029 45 57.983zm8.25 2.105a2.2 2.2 0 01-1.201-.354 2.118 2.118 0 01-.796-.945 2.055 2.055 0 01-.123-1.216c.084-.409.29-.784.592-1.078a2.178 2.178 0 011.106-.576 2.2 2.2 0 011.248.12c.395.159.732.429.97.775a2.068 2.068 0 01.201 1.977c-.108.257-.267.49-.468.686a2.16 2.16 0 01-.701.458 2.21 2.21 0 01-.829.161v-.008zm16.84-1.306h-1.688v1.743h-.88V56.26H70.3v.712h-1.898v1.101h1.687v.71zm4.224-.293c0 .42-.074.788-.223 1.105a1.67 1.67 0 01-.639.732 1.755 1.755 0 01-.949.258c-.353 0-.669-.085-.946-.255a1.695 1.695 0 01-.645-.726 2.511 2.511 0 01-.231-1.09V58.3c0-.42.075-.79.225-1.108a1.7 1.7 0 01.642-.735c.277-.172.594-.258.95-.258.355 0 .67.086.946.258.277.17.49.415.641.735.153.319.229.687.229 1.105v.19zm-.89-.193c0-.447-.081-.787-.241-1.02a.783.783 0 00-.686-.348.782.782 0 00-.682.346c-.16.228-.242.564-.243 1.007v.208c0 .436.08.774.24 1.014.16.24.39.36.691.36a.775.775 0 00.68-.345c.158-.233.238-.57.24-1.014v-.208zm3.74 1.11a.447.447 0 00-.175-.38c-.118-.09-.329-.184-.633-.282a4.565 4.565 0 01-.724-.293c-.484-.262-.727-.614-.727-1.057 0-.23.065-.436.194-.616.13-.181.317-.323.56-.425.244-.101.517-.152.82-.152.304 0 .576.056.814.167.238.11.423.265.554.466.133.201.2.43.2.686h-.88c0-.196-.061-.347-.184-.454-.123-.11-.296-.165-.519-.165-.215 0-.382.046-.5.138a.426.426 0 00-.18.358c0 .138.07.254.208.348.141.094.347.182.619.264.5.15.864.337 1.092.56.229.222.343.5.343.831 0 .37-.14.66-.419.87-.28.21-.655.314-1.128.314-.328 0-.627-.06-.896-.179a1.438 1.438 0 01-.618-.495 1.27 1.27 0 01-.211-.726h.882c0 .47.28.706.843.706.21 0 .372-.042.49-.126a.418.418 0 00.175-.358zm4.69-2.434h-1.306v3.553h-.879v-3.553H78.38v-.712h3.475v.712zm3.071 1.705h-1.688v1.142h1.981v.706h-2.86V56.26h2.854v.712h-1.975v1.016h1.688v.689zm2.388.287h-.7v1.561h-.88V56.26h1.586c.504 0 .892.112 1.166.337.273.224.41.542.41.952 0 .29-.064.534-.19.73a1.282 1.282 0 01-.572.462l.923 1.743v.041h-.944l-.8-1.561zm-.7-.712h.709c.22 0 .391-.056.512-.167a.607.607 0 00.182-.466c0-.201-.058-.36-.173-.474-.113-.116-.288-.173-.524-.173h-.707v1.28zm5.326.77v1.503h-.88V56.26h1.665c.32 0 .601.058.844.176.244.117.431.284.562.5.131.215.196.46.196.736 0 .418-.143.748-.43.99-.285.24-.68.36-1.187.36h-.77zm0-.711h.785c.232 0 .409-.055.53-.165.123-.109.185-.265.185-.468a.704.704 0 00-.185-.507c-.123-.129-.293-.195-.51-.2h-.805v1.34zm5.56.366h-1.687v1.142h1.98v.706h-2.86V56.26h2.854v.712h-1.974v1.016h1.687v.689zm4.078-1.705h-1.306v3.553h-.88v-3.553h-1.288v-.712h3.474v.712zm3.071 1.705h-1.688v1.142h1.981v.706h-2.86V56.26h2.854v.712h-1.975v1.016h1.688v.689zm2.387.287h-.7v1.561h-.879V56.26h1.585c.504 0 .893.112 1.166.337.274.224.41.542.41.952 0 .29-.063.534-.19.73a1.28 1.28 0 01-.571.462l.923 1.743v.041h-.944l-.8-1.561zm-.7-.712h.709c.221 0 .392-.056.513-.167.121-.113.181-.269.181-.466 0-.201-.057-.36-.172-.474-.114-.116-.288-.173-.525-.173h-.706v1.28zm5.165 1.154a.445.445 0 00-.176-.38c-.117-.09-.328-.184-.632-.282a4.566 4.566 0 01-.724-.293c-.484-.262-.727-.614-.727-1.057 0-.23.065-.436.194-.616.131-.181.317-.323.559-.425a2.12 2.12 0 01.821-.152c.304 0 .576.056.814.167.238.11.423.265.554.466.133.201.199.43.199.686h-.879c0-.196-.061-.347-.184-.454-.123-.11-.296-.165-.519-.165-.215 0-.382.046-.501.138a.426.426 0 00-.179.358c0 .138.07.254.208.348.141.094.347.182.619.264.5.15.864.337 1.092.56.229.222.343.5.343.831 0 .37-.14.66-.419.87-.279.21-.655.314-1.128.314a2.19 2.19 0 01-.896-.179 1.432 1.432 0 01-.618-.495 1.268 1.268 0 01-.211-.726h.881c0 .47.282.706.844.706.209 0 .372-.042.489-.126a.417.417 0 00.176-.358z"/>
        </symbol>
        <symbol id="client-logo-5" viewBox="0 0 170 90">
            <path d="M60.488 61.278c.23.285.352.643.346 1.01a1.604 1.604 0 01-.537 1.277c-.446.339-1 .504-1.558.466H56v-6.405h2.683a2.284 2.284 0 011.487.426 1.463 1.463 0 01.52 1.198c.016.353-.095.7-.311.98a1.46 1.46 0 01-.817.5c.364.067.692.26.926.548zm-3.213-.967h1.147c.26.02.519-.056.729-.213a.761.761 0 00.246-.626.787.787 0 00-.243-.625 1.106 1.106 0 00-.751-.216h-1.128v1.68zm1.988 2.456a.796.796 0 00.271-.65.81.81 0 00-.277-.658 1.18 1.18 0 00-.78-.231h-1.202v1.761h1.218c.274.016.546-.062.77-.222zm6.709 1.264l-1.492-2.503h-.561v2.503h-1.284v-6.405h2.43a2.39 2.39 0 011.693.545 2.047 2.047 0 01.18 2.65c-.3.345-.709.575-1.159.65l1.59 2.56h-1.397zm-2.053-3.376h1.05c.73 0 1.094-.323 1.094-.97a.956.956 0 00-.268-.72 1.135 1.135 0 00-.826-.26h-1.063l.013 1.95zm9.071 2.087h-2.558l-.452 1.29h-1.346l2.35-6.334h1.455l2.34 6.333h-1.346l-.442-1.289zm-.342-.97l-.935-2.703-.935 2.703h1.87zm9.128 2.259H80.5l-2.858-4.355v4.355h-1.271v-6.405h1.272l2.857 4.38v-4.38h1.275v6.405zm7.274-1.533a2.757 2.757 0 01-1.153 1.13 3.742 3.742 0 01-1.792.403h-2.27v-6.405h2.27a3.816 3.816 0 011.791.395c.488.246.89.636 1.154 1.117a3.736 3.736 0 010 3.36zm-1.459-.153a2.352 2.352 0 000-3.057 2.21 2.21 0 00-1.595-.545h-.886v4.146h.886a2.21 2.21 0 001.595-.544zM73.788 22s16.452 6.236 16.103 15.26v15.263s-16.44-6.24-16.096-15.263L73.788 22zm30.76 26.95A22.483 22.483 0 01115 45.082v-4.778a21.46 21.46 0 00-10.452 8.646z"/>
            <path d="M102.681 50.389A22.383 22.383 0 01115 39.303V25.536s-23.43 8.883-22.934 21.733V69s1.044-.397 2.687-1.142c0-.695 0-1.395.074-2.1a22.605 22.605 0 017.854-15.369z"/>
            <path d="M100.453 58.462c.123-1.507.397-2.998.819-4.45a21.041 21.041 0 00-4.961 13.126 67.977 67.977 0 004.506-2.384 22.554 22.554 0 01-.364-6.292zm.931.078a21.594 21.594 0 00.29 5.698c6.401-3.846 13.594-9.788 13.317-16.968v-.626a20.971 20.971 0 00-12.179 5.713 21.513 21.513 0 00-1.428 6.183z"/>
        </symbol>
        <symbol id="client-logo-6" viewBox="0 0 170 90">
            <path d="M85.74 43.353a3.258 3.258 0 01-.57-2.057v-2.983c0-.914.19-1.609.567-2.084.379-.475 1.028-.712 1.949-.71.865 0 1.48.202 1.843.607.396.516.589 1.147.545 1.784v.7h-1.548v-.71a3.961 3.961 0 00-.045-.694.689.689 0 00-.221-.413.836.836 0 00-.561-.16.886.886 0 00-.59.17.81.81 0 00-.256.455c-.045.243-.065.49-.061.737v3.62a2 2 0 00.198 1.016.735.735 0 00.31.246.78.78 0 00.399.058.788.788 0 00.548-.164.747.747 0 00.23-.44c.037-.24.053-.483.049-.725v-.735h1.548v.67a2.914 2.914 0 01-.536 1.876c-.355.443-.961.664-1.852.664-.891 0-1.564-.236-1.946-.728zm6.446.031c-.391-.465-.587-1.141-.587-2.036V38.21c0-.886.196-1.556.587-2.011.39-.455 1.044-.682 1.961-.68.91 0 1.56.227 1.952.68.39.455.59 1.125.59 2.011v3.138c0 .886-.2 1.565-.596 2.033-.398.467-1.045.7-1.946.7-.9 0-1.567-.236-1.961-.697zm2.682-.753c.14-.29.204-.61.186-.928V37.86a1.843 1.843 0 00-.183-.91.738.738 0 00-.316-.25.785.785 0 00-.408-.053.794.794 0 00-.41.054.749.749 0 00-.317.25 1.795 1.795 0 00-.186.91v3.859c-.02.32.044.638.186.928a.96.96 0 00.326.23 1.009 1.009 0 00.796 0 .96.96 0 00.326-.23v-.018zm3.682-7.021h1.667l1.253 5.79 1.282-5.79h1.622l.163 8.356h-1.198l-.128-5.807-1.238 5.807h-.961l-1.282-5.828-.119 5.828H98.4l.15-8.355zm7.856 0h2.596c1.495 0 2.243.791 2.243 2.373 0 1.515-.787 2.271-2.362 2.27h-.884v3.713h-1.603l.01-8.355zm2.218 3.571a1.136 1.136 0 00.881-.264 1.45 1.45 0 00.231-.943 2.892 2.892 0 00-.077-.758.635.635 0 00-.118-.23.668.668 0 00-.203-.168 1.526 1.526 0 00-.714-.133h-.622v2.496h.622zm4.932-3.571h1.721l1.766 8.356h-1.494l-.349-1.927h-1.535l-.359 1.927h-1.516l1.766-8.355zm1.471 5.462l-.599-3.508-.6 3.508h1.199zm3.442-5.462h1.122l2.147 4.767V35.61h1.33v8.355h-1.067l-2.16-4.976v4.976h-1.375l.003-8.355zm7.714 5.17l-1.785-5.158h1.503l1.09 3.313 1.022-3.313h1.471l-1.762 5.158v3.186h-1.539V40.78zm-37.968 6.839v.437h-1.308v3.395h-.548v-3.395h-1.314v-.437h3.17zm4.099 3.832h-.423a.176.176 0 01-.119-.036.196.196 0 01-.07-.088l-.379-.91H89.51l-.379.91a.257.257 0 01-.057.103.183.183 0 01-.119.036h-.423l1.603-3.831h.557l1.622 3.816zm-2.654-1.423h1.513l-.641-1.56a2.964 2.964 0 01-.119-.36l-.06.203-.058.16-.635 1.557zm5.416 1.047c.1.005.201.005.302 0 .086-.009.172-.024.256-.046a1.82 1.82 0 00.23-.07c.071-.027.142-.06.216-.094v-.861h-.641a.12.12 0 01-.087-.03.084.084 0 01-.032-.07v-.295h1.244v1.469a2.355 2.355 0 01-.677.312 2.653 2.653 0 01-.4.08 4.455 4.455 0 01-.468.024 2.252 2.252 0 01-.808-.143 1.935 1.935 0 01-.64-.4 1.849 1.849 0 01-.414-.607 2.074 2.074 0 01-.148-.795 2.155 2.155 0 01.145-.801c.092-.228.233-.434.413-.607.183-.173.401-.308.641-.398a2.48 2.48 0 01.859-.143c.15 0 .298.011.445.034.13.02.258.053.382.097.112.04.22.09.32.152.099.06.192.127.28.2l-.155.237a.14.14 0 01-.052.052.15.15 0 01-.073.02.196.196 0 01-.1-.03 1.906 1.906 0 01-.156-.09 1.369 1.369 0 00-.215-.104 1.869 1.869 0 00-.295-.085 2.256 2.256 0 00-.407-.033 1.743 1.743 0 00-.618.106c-.179.068-.34.171-.471.303a1.35 1.35 0 00-.299.477 1.953 1.953 0 000 1.277c.07.18.18.345.321.483.132.131.291.234.468.303.204.066.42.092.635.076zm5.109-.061h1.75v.437H99.65v-3.832h.548l-.013 3.395zm3.57.436h-.548v-3.83h.548v3.832zm2.039-3.813a.27.27 0 01.083.07l2.343 2.889a1.036 1.036 0 010-.137v-2.855h.477v3.847h-.275a.242.242 0 01-.119-.021.318.318 0 01-.086-.073l-2.34-2.885v2.979h-.458V47.62h.285a.23.23 0 01.09.018zm6.938-.018v.422h-1.942v1.265h1.574v.406h-1.574v1.308h1.942v.422h-2.506v-3.823h2.506zM55.303 23.954l24.335 6.541v22.922L55.303 46.88V23.954zM53.743 22v25.992l27.453 7.382v-25.99L53.743 22z"/>
            <path d="M68.457 67.44L41 60.052v-25.99l27.457 7.385V67.44z"/>
            <path d="M54.198 23.66l24.018 6.459L68 39.79l-24.02-6.462 10.217-9.67zM53.743 22L41 34.063l27.457 7.385 12.739-12.063L53.743 22zm16.258 43.978l11.195-10.6-11.195-3.013v13.613z"/>
        </symbol>
        <symbol id="close_button" viewBox="0 0 11 11">
            <path d="M11 1.10786L9.89214 0L5.5 4.39214L1.10786 0L0 1.10786L4.39214 5.5L0 9.89214L1.10786 11L5.5 6.60786L9.89214 11L11 9.89214L6.60786 5.5L11 1.10786Z" fill="black"/>
        </symbol>
        <symbol id="button_subscribe" viewBox="0 0 24 24">
            <path d="M24 0L0 13.5L7.66994 16.3407L19.5 5.25002L10.5017 17.3896L10.509 17.3923L10.5 17.3896V24.0001L14.8013 18.982L20.2501 21.0001L24 0Z"/>
        </symbol>
        <symbol id="order_person" viewBox="0 0 18 18">
            <path d="M9 9C10.6575 9 12 7.6575 12 6C12 4.3425 10.6575 3 9 3C7.3425 3 6 4.3425 6 6C6 7.6575 7.3425 9 9 9ZM9 10.5C6.9975 10.5 3 11.505 3 13.5V14.25C3 14.6625 3.3375 15 3.75 15H14.25C14.6625 15 15 14.6625 15 14.25V13.5C15 11.505 11.0025 10.5 9 10.5Z" />
        </symbol>
        <symbol id="order_phone" viewBox="0 0 18 18">
            <path d="M13.996 11.1226L12.1579 10.9127C11.7164 10.862 11.2822 11.014 10.971 11.3252L9.63945 12.6568C7.59144 11.6147 5.91251 9.94296 4.87041 7.8877L6.20922 6.54888C6.5204 6.2377 6.67237 5.80349 6.62171 5.36205L6.41185 3.53836C6.325 2.80745 5.70988 2.25745 4.97173 2.25745H3.71976C2.902 2.25745 2.22175 2.93771 2.2724 3.75547C2.65595 9.93572 7.59868 14.8712 13.7717 15.2548C14.5894 15.3054 15.2697 14.6252 15.2697 13.8074V12.5555C15.2769 11.8245 14.7269 11.2094 13.996 11.1226Z" />
        </symbol>
        <symbol id="order_email" viewBox="0 0 18 18">
            <path d="M15 3H3C2.175 3 1.5075 3.675 1.5075 4.5L1.5 13.5C1.5 14.325 2.175 15 3 15H15C15.825 15 16.5 14.325 16.5 13.5V4.5C16.5 3.675 15.825 3 15 3ZM14.7 6.1875L9.3975 9.5025C9.1575 9.6525 8.8425 9.6525 8.6025 9.5025L3.3 6.1875C3.1125 6.0675 3 5.865 3 5.6475C3 5.145 3.5475 4.845 3.975 5.1075L9 8.25L14.025 5.1075C14.4525 4.845 15 5.145 15 5.6475C15 5.865 14.8875 6.0675 14.7 6.1875Z" />
        </symbol>
    </defs>
</svg>