<svg aria-hidden="true" style="position: absolute; width: 0; height: 0; overflow: hidden;" version="1.1" xmlns="http://www.w3.org/2000/svg" xmlns:xlink="http://www.w3.org/1999/xlink">
<defs>
<symbol id="instagram" viewBox="0 0 32 32">
<path fill="#fff" style="fill: var(--colorSocialBg, #fff)" d="M32 16c0 4.418-1.791 8.418-4.686 11.314s-6.895 4.686-11.314 4.686-8.418-1.791-11.314-4.686c-2.895-2.895-4.686-6.895-4.686-11.314s1.791-8.418 4.686-11.314 6.895-4.686 11.314-4.686c4.418 0 8.418 1.791 11.314 4.686s4.686 6.895 4.686 11.314z"></path>
<path fill="#afb1b8" style="fill: var(--colorSocial, #afb1b8)" d="M23.258 13.004c-0.034-0.773-0.159-1.304-0.338-1.765-0.185-0.489-0.469-0.926-0.841-1.29-0.364-0.369-0.804-0.656-1.287-0.838-0.463-0.179-0.992-0.304-1.764-0.338-0.779-0.037-1.026-0.046-3.001-0.046s-2.222 0.009-2.998 0.043c-0.773 0.034-1.304 0.159-1.764 0.338-0.489 0.185-0.926 0.469-1.29 0.841-0.369 0.364-0.656 0.804-0.838 1.287-0.179 0.463-0.304 0.992-0.338 1.764-0.037 0.779-0.046 1.026-0.046 3.001s0.009 2.222 0.043 2.998c0.034 0.773 0.159 1.304 0.338 1.765 0.185 0.489 0.472 0.926 0.841 1.29 0.364 0.369 0.804 0.656 1.287 0.838 0.463 0.179 0.992 0.304 1.765 0.338 0.776 0.034 1.023 0.043 2.998 0.043s2.222-0.008 2.998-0.043c0.773-0.034 1.304-0.159 1.764-0.338 0.978-0.378 1.75-1.151 2.128-2.128 0.179-0.463 0.304-0.992 0.338-1.765 0.034-0.776 0.043-1.023 0.043-2.998s-0.003-2.222-0.037-2.998zM21.949 18.942c-0.031 0.71-0.151 1.094-0.25 1.35-0.244 0.634-0.747 1.137-1.381 1.381-0.256 0.099-0.642 0.219-1.35 0.25-0.767 0.034-0.997 0.043-2.938 0.043s-2.174-0.008-2.938-0.043c-0.71-0.031-1.094-0.15-1.35-0.25-0.315-0.116-0.602-0.301-0.835-0.543-0.242-0.236-0.426-0.52-0.543-0.835-0.1-0.256-0.219-0.642-0.25-1.35-0.034-0.767-0.043-0.997-0.043-2.938s0.008-2.174 0.043-2.938c0.031-0.71 0.15-1.094 0.25-1.35 0.117-0.315 0.301-0.602 0.546-0.835 0.236-0.242 0.52-0.426 0.835-0.543 0.256-0.099 0.642-0.219 1.35-0.25 0.767-0.034 0.997-0.043 2.938-0.043 1.944 0 2.174 0.008 2.938 0.043 0.71 0.031 1.094 0.151 1.35 0.25 0.315 0.116 0.602 0.301 0.835 0.543 0.242 0.236 0.426 0.52 0.543 0.835 0.099 0.256 0.219 0.642 0.25 1.35 0.034 0.767 0.043 0.997 0.043 2.938s-0.009 2.168-0.043 2.935z"></path>
<path fill="#afb1b8" style="fill: var(--colorSocial, #afb1b8)" d="M16.027 12.265c-2.063 0-3.736 1.674-3.736 3.736s1.674 3.736 3.736 3.736c2.063 0 3.736-1.674 3.736-3.736s-1.674-3.736-3.736-3.736zM16.027 18.425c-1.338 0-2.424-1.085-2.424-2.424s1.086-2.424 2.424-2.424c1.338 0 2.424 1.085 2.424 2.424s-1.085 2.424-2.424 2.424z"></path>
<path fill="#afb1b8" style="fill: var(--colorSocial, #afb1b8)" d="M20.784 12.117c0 0.482-0.391 0.872-0.872 0.872s-0.872-0.391-0.872-0.872c0-0.482 0.391-0.872 0.872-0.872s0.872 0.39 0.872 0.872z"></path>
</symbol>
<symbol id="twitter" viewBox="0 0 32 32">
<path fill="#fff" style="fill: var(--colorSocialBg, #fff)" d="M32 16c0 4.418-1.791 8.418-4.686 11.314s-6.895 4.686-11.314 4.686-8.418-1.791-11.314-4.686c-2.895-2.895-4.686-6.895-4.686-11.314s1.791-8.418 4.686-11.314 6.895-4.686 11.314-4.686c4.418 0 8.418 1.791 11.314 4.686s4.686 6.895 4.686 11.314z"></path>
<path fill="#afb1b8" style="fill: var(--colorSocial, #afb1b8)" d="M23.273 11.49c-0.541 0.237-1.117 0.394-1.718 0.471 0.618-0.369 1.090-0.949 1.312-1.648-0.576 0.344-1.213 0.586-1.891 0.722-0.547-0.583-1.327-0.944-2.178-0.944-1.651 0-2.98 1.34-2.98 2.983 0 0.236 0.020 0.464 0.069 0.68-2.479-0.121-4.673-1.309-6.146-3.119-0.257 0.446-0.408 0.957-0.408 1.507 0 1.033 0.532 1.948 1.325 2.478-0.479-0.009-0.949-0.148-1.347-0.367 0 0.009 0 0.021 0 0.033 0 1.449 1.034 2.653 2.389 2.93-0.243 0.066-0.507 0.098-0.782 0.098-0.191 0-0.384-0.011-0.565-0.051 0.386 1.181 1.483 2.049 2.786 2.077-1.015 0.794-2.303 1.272-3.697 1.272-0.245 0-0.479-0.011-0.714-0.041 1.321 0.852 2.886 1.338 4.575 1.338 5.487 0 8.487-4.545 8.487-8.485 0-0.132-0.005-0.259-0.011-0.385 0.592-0.42 1.089-0.944 1.495-1.548z"></path>
</symbol>
<symbol id="facebook" viewBox="0 0 32 32">
<path fill="#fff" style="fill: var(--colorSocialBg, #fff)" d="M32 16c0 4.418-1.791 8.418-4.686 11.314s-6.895 4.686-11.314 4.686-8.418-1.791-11.314-4.686c-2.895-2.895-4.686-6.895-4.686-11.314s1.791-8.418 4.686-11.314 6.895-4.686 11.314-4.686c4.418 0 8.418 1.791 11.314 4.686s4.686 6.895 4.686 11.314z"></path>
<path fill="#afb1b8" style="fill: var(--colorSocial, #afb1b8)" d="M18.422 11.142h1.328v-2.313c-0.229-0.031-1.017-0.102-1.935-0.102-1.915 0-3.226 1.204-3.226 3.418v2.037h-2.113v2.585h2.113v6.505h2.59v-6.505h2.027l0.322-2.585h-2.35v-1.781c0.001-0.747 0.202-1.259 1.243-1.259z"></path>
</symbol>
<symbol id="linkedin" viewBox="0 0 32 32">
<path fill="#fff" style="fill: var(--colorSocialBg, #fff)" d="M32 16c0 4.418-1.791 8.418-4.686 11.314s-6.895 4.686-11.314 4.686-8.418-1.791-11.314-4.686c-2.895-2.895-4.686-6.895-4.686-11.314s1.791-8.418 4.686-11.314 6.895-4.686 11.314-4.686c4.418 0 8.418 1.791 11.314 4.686s4.686 6.895 4.686 11.314z"></path>
<path fill="#afb1b8" style="fill: var(--colorSocial, #afb1b8)" d="M23.269 23.273v-0.001h0.004v-5.335c0-2.61-0.562-4.62-3.613-4.62-1.467 0-2.451 0.805-2.853 1.568h-0.042v-1.324h-2.893v9.711h3.012v-4.809c0-1.266 0.24-2.49 1.808-2.49 1.545 0 1.568 1.445 1.568 2.572v4.728h3.009z"></path>
<path fill="#afb1b8" style="fill: var(--colorSocial, #afb1b8)" d="M8.967 13.562h3.016v9.711h-3.016v-9.711z"></path>
<path fill="#afb1b8" style="fill: var(--colorSocial, #afb1b8)" d="M10.474 8.727c-0.964 0-1.747 0.782-1.747 1.747s0.782 1.763 1.747 1.763c0.964 0 1.747-0.799 1.747-1.763s-0.783-1.747-1.747-1.747v0z"></path>
</symbol>
<symbol id="envelope" viewBox="0 0 43 32">
<path d="M38.667 0h-34.667c-2.206 0-4 1.794-4 4v24c0 2.206 1.794 4 4 4h34.667c2.206 0 4-1.794 4-4v-24c0-2.206-1.794-4-4-4zM38.667 2.667c0.181 0 0.353 0.038 0.511 0.103l-17.844 15.466-17.844-15.466c0.158-0.066 0.33-0.103 0.511-0.103h34.667zM38.667 29.333h-34.667c-0.736 0-1.333-0.598-1.333-1.333v-22.413l17.793 15.421c0.251 0.217 0.563 0.326 0.874 0.326s0.622-0.108 0.874-0.326l17.793-15.421v22.413c0 0.736-0.598 1.333-1.333 1.333z"></path>
</symbol>
<symbol id="antenna" viewBox="0 0 32 32">
<path fill="#212121" style="fill: var(--color4, #212121)" d="M30.773 22.098l-8.443-8.505 0.937-4.615c0.242 0.094 0.499 0.144 0.758 0.146h0.006c1.192 0.014 2.17-0.941 2.184-2.133s-0.941-2.17-2.133-2.184c-1.192-0.014-2.17 0.941-2.184 2.133-0.003 0.255 0.039 0.509 0.125 0.749l-4.96 0.605-8.091-8.133c-0.099-0.101-0.235-0.159-0.377-0.16-0.14 0.001-0.274 0.056-0.373 0.155l-1.513 1.504c-0.208 0.208-0.208 0.546 0 0.754l0.814 0.826c-3.153 5.798-2.129 12.978 2.519 17.663 0.043 0.041 0.092 0.074 0.146 0.098-0.034 0.18-0.051 0.364-0.052 0.547v6.187h-6.4c-1.472 0.002-2.665 1.195-2.667 2.667v1.067c0 0.295 0.239 0.533 0.533 0.533h24.533c0.295 0 0.533-0.239 0.533-0.533v-1.067c-0.002-1.472-1.195-2.665-2.667-2.667h-6.4v-2.742c1.003 0.21 2.024 0.317 3.049 0.32 2.458-0.003 4.877-0.615 7.040-1.783l0.818 0.823c0.099 0.101 0.235 0.159 0.377 0.16 0.14-0.001 0.274-0.056 0.373-0.155l1.512-1.504c0.208-0.208 0.208-0.546 0-0.754zM23.28 6.233c0.418-0.415 1.093-0.414 1.508 0.004s0.414 1.093-0.004 1.508c-0.2 0.199-0.47 0.31-0.752 0.31h-0.003c-0.589-0.003-1.064-0.483-1.061-1.072 0.001-0.282 0.114-0.552 0.314-0.751h-0.002zM22.024 9.738l-0.598 2.946-1.175-1.182 1.774-1.763zM21.418 8.836l-1.92 1.909-1.485-1.493 3.405-0.415zM24.004 28.8c0.884 0 1.6 0.716 1.6 1.6v0.533h-23.467v-0.533c0-0.884 0.716-1.6 1.6-1.6h20.267zM16.537 26.667v1.067h-5.333v-1.067h5.333zM11.204 25.6v-4.053c0-1.294 1.196-2.347 2.667-2.347s2.667 1.053 2.667 2.347v4.053h-5.333zM17.604 23.904v-2.357c0-1.882-1.675-3.413-3.733-3.413-1.331-0.020-2.576 0.657-3.281 1.786-4.058-4.274-4.971-10.645-2.279-15.887l18.602 18.708c-2.872 1.461-6.165 1.873-9.309 1.163zM28.893 23.22l-21.057-21.181 0.755-0.752 7.935 7.98c0.004 0 0.006 0.007 0.010 0.010l13.115 13.191-0.757 0.752z"></path>
<path fill="#2196f3" style="fill: var(--color5, #2196f3)" d="M13.876 20.267h-0.005c-0.884-0.001-1.601 0.714-1.602 1.598s0.714 1.601 1.598 1.602h0.005c0.884 0.001 1.601-0.714 1.602-1.598s-0.714-1.601-1.598-1.602zM14.249 22.245c-0.1 0.1-0.236 0.156-0.378 0.155-0.295-0.002-0.532-0.242-0.53-0.536 0.001-0.141 0.057-0.276 0.157-0.375s0.233-0.154 0.373-0.155c0.295 0.002 0.532 0.241 0.531 0.536-0.001 0.141-0.057 0.276-0.157 0.375h0.005z"></path>
</symbol>
<symbol id="smartphone" viewBox="0 0 20 32">
<path d="M17 0h-14c-1.654 0-3 1.346-3 3v26c0 1.654 1.346 3 3 3h14c1.654 0 3-1.346 3-3v-26c0-1.654-1.346-3-3-3zM3 2h14c0.552 0 1 0.448 1 1v21h-16v-21c0-0.552 0.448-1 1-1zM17 30h-14c-0.552 0-1-0.448-1-1v-3h16v3c0 0.552-0.448 1-1 1z"></path>
<path d="M4.707 27.478c0.391 0.365 0.391 0.956 0 1.321s-1.024 0.365-1.414 0c-0.391-0.365-0.391-0.956 0-1.321s1.024-0.365 1.414 0z"></path>
</symbol>
<symbol id="astronaut" viewBox="0 0 32 32">
<path fill="#2196f3" style="fill: var(--color5, #2196f3)" d="M31.974 4.524c-0.063-0.193-0.229-0.333-0.43-0.363l-1.91-0.278-0.855-1.731c-0.179-0.365-0.777-0.365-0.956 0l-0.855 1.731-1.91 0.278c-0.201 0.029-0.367 0.17-0.431 0.363-0.062 0.193-0.011 0.405 0.135 0.547l1.383 1.348-0.326 1.903c-0.034 0.2 0.048 0.402 0.212 0.522 0.166 0.121 0.382 0.135 0.562 0.040l1.709-0.899 1.709 0.899c0.078 0.041 0.164 0.061 0.249 0.061 0.11 0 0.221-0.034 0.314-0.102 0.164-0.119 0.246-0.322 0.212-0.522l-0.326-1.903 1.383-1.348c0.145-0.142 0.197-0.354 0.135-0.547zM29.511 5.851c-0.125 0.122-0.183 0.299-0.153 0.472l0.191 1.114-1-0.526c-0.078-0.041-0.163-0.061-0.249-0.061s-0.17 0.020-0.249 0.061l-1.001 0.526 0.191-1.114c0.030-0.173-0.028-0.349-0.153-0.472l-0.81-0.789 1.119-0.163c0.174-0.025 0.324-0.134 0.402-0.292l0.5-1.013 0.5 1.013c0.078 0.157 0.228 0.267 0.402 0.292l1.119 0.163-0.809 0.789z"></path>
<path fill="#2196f3" style="fill: var(--color5, #2196f3)" d="M26.134 20.522h-1.067v1.067h1.067v-1.067z"></path>
<path fill="#2196f3" style="fill: var(--color5, #2196f3)" d="M26.134 22.656h-1.067v1.067h1.067v-1.067z"></path>
<path fill="#2196f3" style="fill: var(--color5, #2196f3)" d="M27.2 21.589h-1.067v1.067h1.067v-1.067z"></path>
<path fill="#2196f3" style="fill: var(--color5, #2196f3)" d="M25.067 21.589h-1.067v1.067h1.067v-1.067z"></path>
<path fill="#2196f3" style="fill: var(--color5, #2196f3)" d="M22.4 26.389h-1.067v1.067h1.067v-1.067z"></path>
<path fill="#2196f3" style="fill: var(--color5, #2196f3)" d="M22.4 28.522h-1.067v1.067h1.067v-1.067z"></path>
<path fill="#2196f3" style="fill: var(--color5, #2196f3)" d="M23.467 27.456h-1.067v1.067h1.067v-1.067z"></path>
<path fill="#2196f3" style="fill: var(--color5, #2196f3)" d="M21.333 27.456h-1.067v1.067h1.067v-1.067z"></path>
<path fill="#2196f3" style="fill: var(--color5, #2196f3)" d="M16 24.256h-1.067v1.067h1.067v-1.067z"></path>
<path fill="#2196f3" style="fill: var(--color5, #2196f3)" d="M16 26.389h-1.067v1.067h1.067v-1.067z"></path>
<path fill="#2196f3" style="fill: var(--color5, #2196f3)" d="M17.067 25.322h-1.067v1.067h1.067v-1.067z"></path>
<path fill="#2196f3" style="fill: var(--color5, #2196f3)" d="M14.933 25.322h-1.067v1.067h1.067v-1.067z"></path>
<path fill="#2196f3" style="fill: var(--color5, #2196f3)" d="M5.867 6.122h-1.067v1.067h1.067v-1.067z"></path>
<path fill="#2196f3" style="fill: var(--color5, #2196f3)" d="M5.867 8.255h-1.067v1.067h1.067v-1.067z"></path>
<path fill="#2196f3" style="fill: var(--color5, #2196f3)" d="M6.933 7.189h-1.067v1.067h1.067v-1.067z"></path>
<path fill="#2196f3" style="fill: var(--color5, #2196f3)" d="M4.8 7.189h-1.067v1.067h1.067v-1.067z"></path>
<path fill="#212121" style="fill: var(--color4, #212121)" d="M24.715 14.159c-0.287-0.388-0.709-0.637-1.188-0.705-0.481-0.068-0.956 0.058-1.34 0.352l-1.252 0.96-1.898 1.417-1.358-0.541c2.421-1.086 4.114-3.508 4.114-6.32 0-3.823-3.123-6.933-6.961-6.933s-6.961 3.11-6.961 6.933c0 1.386 0.414 2.674 1.12 3.758l-2.764-0.024c-0.002 0-0.003 0-0.005 0-0.009 0-0.015 0.004-0.023 0.005-0.053 0.002-0.105 0.013-0.155 0.031-0.013 0.005-0.026 0.008-0.038 0.013-0.006 0.003-0.013 0.003-0.019 0.006l-3.233 1.596c-0.001 0-0.001 0-0.001 0.001l-1.893 0.911c-0.021 0.009-0.042 0.021-0.063 0.035-0.755 0.502-1.012 1.489-0.598 2.295 0.22 0.429 0.595 0.745 1.056 0.889 0.178 0.055 0.359 0.083 0.539 0.083 0.29 0 0.577-0.071 0.839-0.211l1.388-0.738 2.264-1.169 1.357-0.008-5.442 5.416c-0.001 0.001-0.001 0.001-0.002 0.001l-1.339 1.333c-0.316 0.315-0.49 0.732-0.49 1.178s0.174 0.863 0.49 1.179c0.325 0.323 0.752 0.485 1.179 0.485s0.854-0.162 1.18-0.485l1.314-1.309 1.741-1.3 0.901 0.897-1.762 1.754c-0 0.001-0.001 0.001-0.002 0.001l-1.339 1.333c-0.316 0.315-0.49 0.732-0.49 1.178s0.174 0.863 0.49 1.179c0.325 0.323 0.753 0.485 1.18 0.485s0.855-0.162 1.18-0.485l3.482-3.467c0.001-0.001 0.001-0.001 0.001-0.002l1.010-1-0.004-0.004c0.006-0.006 0.015-0.009 0.022-0.015l5.166-5.658 3.471 0.494c0.025 0.004 0.050 0.005 0.075 0.005 0.065 0 0.127-0.015 0.187-0.038 0.018-0.006 0.033-0.015 0.050-0.023 0.019-0.010 0.039-0.015 0.058-0.027l3.213-2.133c0.012-0.008 0.018-0.021 0.029-0.029 0.013-0.010 0.029-0.014 0.041-0.026l1.271-1.191c0.662-0.62 0.753-1.635 0.212-2.362zM2.13 17.77c-0.173 0.093-0.37 0.111-0.558 0.052-0.187-0.058-0.338-0.186-0.427-0.358-0.161-0.314-0.068-0.695 0.214-0.902l1.314-0.632 0.449 1.313-0.992 0.527zM5.628 15.942l-1.548 0.8-0.439-1.283 2.027-1.001-0.040 1.484zM20.727 9.322c0 0.918-0.219 1.785-0.599 2.559l-4.181-1.899c-0.044-0.573-0.341-1.075-0.788-1.388l1.464-4.86c2.378 0.756 4.105 2.974 4.105 5.588zM8.938 9.322c0-3.235 2.644-5.867 5.894-5.867 0.253 0 0.5 0.021 0.745 0.052l-1.432 4.754c-0.019-0.001-0.037-0.006-0.057-0.006-1.033 0-1.873 0.837-1.873 1.867s0.84 1.867 1.873 1.867c0.694 0 1.294-0.383 1.618-0.945l3.862 1.755c-1.075 1.446-2.795 2.39-4.737 2.39-3.25 0-5.894-2.632-5.894-5.867zM14.894 10.122c0 0.441-0.362 0.8-0.806 0.8s-0.806-0.359-0.806-0.8c0-0.441 0.362-0.8 0.806-0.8s0.806 0.359 0.806 0.8zM2.465 25.146c-0.236 0.234-0.619 0.234-0.854 0.001-0.114-0.114-0.176-0.263-0.176-0.423s0.062-0.309 0.176-0.421l0.962-0.959 0.851 0.848-0.959 0.955zM5.679 28.88c-0.236 0.234-0.619 0.235-0.855 0.001-0.114-0.114-0.176-0.263-0.176-0.423s0.062-0.309 0.176-0.421l0.963-0.959 0.852 0.848-0.96 0.955zM9.16 25.411c-0.001 0-0.001 0-0.002 0.001l-1.765 1.76-0.852-0.848 1.763-1.755c0 0 0 0 0-0s0.001-0.001 0.002-0.001c0.040-0.040 0.065-0.088 0.090-0.135 0.007-0.014 0.020-0.026 0.026-0.040 0.017-0.041 0.019-0.085 0.026-0.129 0.003-0.025 0.014-0.047 0.014-0.073 0-0.036-0.013-0.070-0.020-0.106-0.006-0.032-0.006-0.065-0.019-0.095-0.020-0.050-0.055-0.094-0.091-0.138-0.010-0.012-0.014-0.027-0.025-0.038 0 0 0 0-0.001 0s-0.001-0.002-0.001-0.002l-1.607-1.6c-0.017-0.017-0.039-0.024-0.058-0.038-0.028-0.022-0.055-0.042-0.087-0.058-0.030-0.015-0.061-0.024-0.093-0.033-0.034-0.010-0.067-0.017-0.103-0.020-0.033-0.002-0.063 0.001-0.095 0.005-0.036 0.004-0.069 0.009-0.104 0.020-0.034 0.011-0.063 0.027-0.094 0.045-0.020 0.011-0.042 0.015-0.061 0.029l-1.773 1.324-0.901-0.897 2.399-2.386 4.361 4.289-0.928 0.919zM15.979 18.394c-0.015-0.002-0.030 0.004-0.045 0.003-0.039-0.002-0.076 0.001-0.115 0.007-0.030 0.005-0.059 0.011-0.088 0.021-0.034 0.012-0.065 0.028-0.097 0.047-0.030 0.018-0.057 0.037-0.083 0.061-0.013 0.011-0.028 0.017-0.040 0.029l-4.698 5.146-4.328-4.257 2.833-2.818c0.209-0.208 0.21-0.546 0.002-0.755-0.105-0.105-0.243-0.157-0.381-0.156v-0.001l-2.219 0.013 0.028-1.607 3.104 0.027c1.265 1.294 3.029 2.101 4.981 2.101 0.437 0 0.864-0.045 1.279-0.123 0.040 0.032 0.079 0.065 0.13 0.085l2.41 0.96 0.152 0.758 0.178 0.885-3.003-0.427zM20.020 18.572l-0.313-1.558 1.446-1.080 0.947 1.257-2.080 1.381zM23.774 15.741l-0.838 0.785-0.931-1.236 0.831-0.637c0.155-0.119 0.351-0.168 0.543-0.143 0.193 0.027 0.364 0.128 0.48 0.284 0.217 0.292 0.18 0.699-0.085 0.947z"></path>
<path fill="#212121" style="fill: var(--color4, #212121)" d="M13.602 18.544l-2.143-2.133c-0.207-0.207-0.545-0.207-0.753 0l-2.142 2.133c-0.1 0.101-0.157 0.236-0.157 0.378s0.056 0.278 0.157 0.378l2.142 2.133c0.104 0.103 0.241 0.155 0.377 0.155s0.273-0.052 0.376-0.155l2.143-2.133c0.1-0.1 0.157-0.236 0.157-0.378s-0.057-0.278-0.157-0.378zM11.083 20.303l-1.387-1.381 1.387-1.381 1.387 1.381-1.387 1.381z"></path>
<path fill="#212121" style="fill: var(--color4, #212121)" d="M17.164 5.071l-0.258 1.036c0.071 0.018 1.738 0.452 1.738 2.149h1.067c-0-2.017-1.666-2.965-2.547-3.185z"></path>
<path fill="#212121" style="fill: var(--color4, #212121)" d="M19.711 9.322h-1.067v1.067h1.067v-1.067z"></path>
</symbol>
<symbol id="clock" viewBox="0 0 32 32">
<path fill="#212121" style="fill: var(--color4, #212121)" d="M31.297 15.301c-0.002-8.452-6.855-15.303-15.308-15.301s-15.303 6.855-15.301 15.308c0.001 6.658 4.307 12.551 10.649 14.576 0.061 0.019 0.124 0.029 0.187 0.029 0.121-0 0.239-0.032 0.343-0.094 0.135-0.080 0.236-0.207 0.283-0.356l3.865-12.25c1.057-0.005 1.909-0.866 1.903-1.923s-0.866-1.909-1.923-1.903c-0.284 0.001-0.565 0.067-0.82 0.191l-5.106-5.107c-0.253-0.245-0.657-0.238-0.902 0.016-0.239 0.247-0.239 0.639 0 0.886l5.103 5.109c-0.392 0.799-0.168 1.764 0.536 2.309l-3.683 11.673c-7.278-2.681-11.004-10.754-8.323-18.032s10.754-11.004 18.032-8.323c7.278 2.681 11.004 10.754 8.324 18.032-1.31 3.556-4.001 6.431-7.462 7.973l-0.398-1.874c-0.073-0.344-0.411-0.565-0.756-0.492-0.109 0.023-0.209 0.074-0.292 0.148l-3.837 3.426c-0.263 0.234-0.287 0.637-0.052 0.9 0.076 0.085 0.174 0.149 0.283 0.184l4.899 1.563c0.335 0.108 0.694-0.077 0.802-0.412 0.034-0.106 0.040-0.219 0.017-0.328l-0.391-1.839c5.664-2.388 9.342-7.942 9.329-14.089zM15.992 14.664c0.352 0 0.638 0.286 0.638 0.638s-0.286 0.638-0.638 0.638c-0.352 0-0.638-0.285-0.638-0.638s0.285-0.638 0.638-0.638zM18.093 29.528l2.184-1.948 0.603 2.84-2.787-0.892z"></path>
<path fill="#2196f3" style="fill: var(--color5, #2196f3)" d="M15.354 3.185v1.275c0 0.352 0.285 0.638 0.638 0.638s0.638-0.285 0.638-0.638v-1.275c0-0.352-0.286-0.638-0.638-0.638s-0.638 0.286-0.638 0.638z"></path>
<path fill="#2196f3" style="fill: var(--color5, #2196f3)" d="M3.876 14.664c-0.352 0-0.638 0.286-0.638 0.638s0.285 0.638 0.638 0.638h1.275c0.352 0 0.638-0.285 0.638-0.638s-0.285-0.638-0.638-0.638h-1.275z"></path>
<path fill="#2196f3" style="fill: var(--color5, #2196f3)" d="M28.108 15.939c0.352 0 0.638-0.285 0.638-0.638s-0.285-0.638-0.638-0.638h-1.275c-0.352 0-0.638 0.286-0.638 0.638s0.286 0.638 0.638 0.638h1.275z"></path>
</symbol>
<symbol id="diagram" viewBox="0 0 32 32">
<path fill="#2196f3" style="fill: var(--color5, #2196f3)" d="M14.926 14.965h1.066v4.798h-1.066v-4.797z"></path>
<path fill="#2196f3" style="fill: var(--color5, #2196f3)" d="M19.19 17.097h1.066v2.665h-1.066v-2.665z"></path>
<path fill="#2196f3" style="fill: var(--color5, #2196f3)" d="M10.661 18.696h1.066v1.066h-1.066v-1.066z"></path>
<path fill="#2196f3" style="fill: var(--color5, #2196f3)" d="M7.463 18.163h1.066v1.599h-1.066v-1.599z"></path>
<path fill="#212121" style="fill: var(--color4, #212121)" d="M1.599 28.291h25.587c0.883 0 1.599-0.716 1.599-1.599v-2.132c0-0.883-0.716-1.599-1.599-1.599h-0.533v-13.293l3.028-2.868c0.703 0.346 1.553 0.136 2.013-0.499s0.396-1.508-0.152-2.068-1.42-0.644-2.065-0.198c-0.644 0.446-0.873 1.292-0.542 2.002l-2.281 2.163v-1.23c0-0.883-0.716-1.599-1.599-1.599h-21.322c-0.883 0-1.599 0.716-1.599 1.599v15.992h-0.533c-0.883 0-1.599 0.716-1.599 1.599v2.132c0 0.883 0.716 1.599 1.599 1.599zM30.384 4.837c0.294 0 0.533 0.239 0.533 0.533s-0.239 0.533-0.533 0.533c-0.294 0-0.533-0.239-0.533-0.533s0.239-0.533 0.533-0.533zM3.198 6.969c0-0.294 0.239-0.533 0.533-0.533h21.322c0.294 0 0.533 0.239 0.533 0.533v2.239l-1.066 1.013v-2.186c0-0.294-0.239-0.533-0.533-0.533h-19.19c-0.294 0-0.533 0.239-0.533 0.533v13.326c0 0.294 0.239 0.533 0.533 0.533h19.19c0.294 0 0.533-0.239 0.533-0.533v-9.674l1.066-1.010v12.284h-22.388v-15.992zM7.996 13.899c-0.721-0.002-1.354 0.478-1.546 1.174s0.105 1.433 0.725 1.801c0.62 0.368 1.41 0.276 1.928-0.226l1.853 0.93c0.215 0.108 0.476 0.057 0.636-0.123l3.939-4.431 3.872 2.901c0.208 0.156 0.498 0.139 0.686-0.039l3.365-3.188v8.131h-18.124v-12.26h18.124v2.66l-3.771 3.572-3.904-2.927c-0.222-0.166-0.534-0.135-0.718 0.072l-3.993 4.493-1.493-0.746c0.011-0.064 0.018-0.129 0.020-0.193 0-0.883-0.716-1.599-1.599-1.599zM8.529 15.498c0 0.294-0.239 0.533-0.533 0.533s-0.533-0.239-0.533-0.533c0-0.294 0.239-0.533 0.533-0.533s0.533 0.239 0.533 0.533zM11.727 24.026h5.331v0.533c0 0.294-0.239 0.533-0.533 0.533h-4.264c-0.294 0-0.533-0.239-0.533-0.533v-0.533zM1.066 24.56c0-0.294 0.239-0.533 0.533-0.533h9.062v0.533c0 0.883 0.716 1.599 1.599 1.599h4.264c0.883 0 1.599-0.716 1.599-1.599v-0.533h9.062c0.294 0 0.533 0.239 0.533 0.533v2.132c0 0.294-0.239 0.533-0.533 0.533h-25.587c-0.294 0-0.533-0.239-0.533-0.533v-2.132z"></path>
</symbol>
<symbol id="client-logo-1" viewBox="0 0 170 90" fill="none">
<rect stroke="#AFB1B8" style="stroke: var(--colorClientLogoAccent, #AFB1B8)" x="0.5" y="0.5" width="169" height="89" rx="3.5"/>
<path fill="#AFB1B8" style="fill: var(--colorClientLogoAccent, #AFB1B8)" d="M69 20L76.3076 26.918H96.6924V46.2158L104 53.1338V20H69Z"/>
<path fill="#AFB1B8" style="fill: var(--colorClientLogoAccent, #AFB1B8)" d="M63 26.6265V58.8137H97V46.0195L76.5231 26.6344L63 26.6265ZM90.5231 54.1055H68.3801V32.4579H69.9453V52.6397H90.5231V54.1055Z"/>
<path fill="#AFB1B8" style="fill: var(--colorClientLogoAccent, #AFB1B8)" d="M72.791 64.7837L73.6089 63.0991H74.2925L73.1011 65.3452V66.6538H72.481V65.3452L71.2871 63.0991H71.9731L72.791 64.7837ZM76.3018 65.8262H74.9248L74.6367 66.6538H73.9946L75.3374 63.0991H75.8916L77.2368 66.6538H76.5923L76.3018 65.8262ZM75.0981 65.3281H76.1284L75.6133 63.8535L75.0981 65.3281ZM78.7358 65.6943C78.7358 65.5299 78.7806 65.3794 78.8701 65.2427C78.9596 65.1043 79.1362 64.9408 79.3999 64.752C79.2616 64.5778 79.1647 64.4297 79.1094 64.3076C79.0557 64.1855 79.0288 64.0675 79.0288 63.9536C79.0288 63.6753 79.1134 63.4556 79.2827 63.2944C79.452 63.1317 79.6799 63.0503 79.9663 63.0503C80.2251 63.0503 80.4367 63.1268 80.6011 63.2798C80.7671 63.4312 80.8501 63.6191 80.8501 63.8438C80.8501 63.9919 80.8127 64.1286 80.7378 64.2539C80.6629 64.3776 80.54 64.5013 80.3691 64.625L80.1274 64.8008L80.8135 65.6113C80.9128 65.416 80.9624 65.1987 80.9624 64.9595H81.4775C81.4775 65.3973 81.375 65.7562 81.1699 66.0361L81.6924 66.6538H81.0039L80.8037 66.417C80.5498 66.6074 80.2471 66.7026 79.8955 66.7026C79.5439 66.7026 79.2624 66.6099 79.0508 66.4243C78.8408 66.2371 78.7358 65.9938 78.7358 65.6943ZM79.9126 66.229C80.1128 66.229 80.3 66.1623 80.4741 66.0288L79.6978 65.1133L79.6221 65.167C79.4268 65.3151 79.3291 65.4844 79.3291 65.6748C79.3291 65.8392 79.382 65.9727 79.4878 66.0752C79.5936 66.1777 79.7352 66.229 79.9126 66.229ZM79.5854 63.939C79.5854 64.0757 79.6693 64.2474 79.8369 64.4541L80.1079 64.2686L80.1836 64.2075C80.2845 64.118 80.335 64.0033 80.335 63.8633C80.335 63.7705 80.3 63.6916 80.23 63.6265C80.16 63.5597 80.0713 63.5264 79.9639 63.5264C79.8483 63.5264 79.7563 63.5654 79.688 63.6436C79.6196 63.7217 79.5854 63.8201 79.5854 63.939ZM86.043 65.4966C86.0072 65.8758 85.8672 66.172 85.623 66.3853C85.3789 66.5968 85.0542 66.7026 84.6489 66.7026C84.3657 66.7026 84.1159 66.6359 83.8994 66.5024C83.6846 66.3674 83.5186 66.1761 83.4014 65.9287C83.2842 65.6813 83.2231 65.394 83.2183 65.0669V64.7349C83.2183 64.3996 83.2777 64.1042 83.3965 63.8486C83.5153 63.5931 83.6854 63.3962 83.9067 63.2578C84.1297 63.1195 84.3869 63.0503 84.6782 63.0503C85.0705 63.0503 85.3862 63.1569 85.6255 63.3701C85.8647 63.5833 86.0039 63.8844 86.043 64.2734H85.4277C85.3984 64.0179 85.3236 63.834 85.2031 63.7217C85.0843 63.6077 84.9093 63.5508 84.6782 63.5508C84.4097 63.5508 84.203 63.6493 84.0581 63.8462C83.9149 64.0415 83.8416 64.3288 83.8384 64.708V65.0229C83.8384 65.4071 83.9067 65.7 84.0435 65.9019C84.1818 66.1037 84.3836 66.2046 84.6489 66.2046C84.8914 66.2046 85.0737 66.1501 85.1958 66.041C85.3179 65.932 85.3952 65.7505 85.4277 65.4966H86.043ZM89.4341 64.9692C89.4341 65.3175 89.3739 65.6235 89.2534 65.8872C89.133 66.1493 88.9604 66.3511 88.7358 66.4927C88.5129 66.6326 88.2557 66.7026 87.9644 66.7026C87.6763 66.7026 87.4191 66.6326 87.1929 66.4927C86.9683 66.3511 86.7941 66.1501 86.6704 65.8896C86.5483 65.6292 86.4865 65.3289 86.4849 64.9888V64.7886C86.4849 64.4419 86.5459 64.1359 86.668 63.8706C86.7917 63.6053 86.965 63.4027 87.188 63.2627C87.4126 63.1211 87.6698 63.0503 87.9595 63.0503C88.2492 63.0503 88.5055 63.1203 88.7285 63.2603C88.9531 63.3986 89.1265 63.5988 89.2485 63.8608C89.3706 64.1213 89.4325 64.4248 89.4341 64.7715V64.9692ZM88.8164 64.7837C88.8164 64.3898 88.7415 64.0879 88.5918 63.8779C88.4437 63.668 88.2329 63.563 87.9595 63.563C87.6925 63.563 87.4834 63.668 87.332 63.8779C87.1823 64.0863 87.1058 64.3817 87.1025 64.7642V64.9692C87.1025 65.3599 87.1782 65.6618 87.3296 65.875C87.4826 66.0882 87.6942 66.1948 87.9644 66.1948C88.2378 66.1948 88.4478 66.0907 88.5942 65.8823C88.7424 65.674 88.8164 65.3696 88.8164 64.9692V64.7837Z"/>
</symbol>
<symbol id="client-logo-2" viewBox="0 0 170 90" fill="none">
<rect stroke="#AFB1B8" style="stroke: var(--colorClientLogoAccent, #AFB1B8)" x="0.5" y="0.5" width="169" height="89" rx="3.5"/>
<path fill="#AFB1B8" style="fill: var(--colorClientLogoAccent, #AFB1B8)" d="M81.977 21.9345H82.1136C82.3666 21.9345 82.6398 21.9599 82.9105 21.9828C84.1031 22.067 85.2873 22.2455 86.4521 22.5168V19.6535C85.2528 19.3526 84.0297 19.1578 82.7966 19.0712C82.3286 19.0356 81.8303 19.0127 81.3193 19H80.8917C78.4168 19.0093 75.9526 19.3271 73.5555 19.946C70.8253 20.6269 68.2047 21.6928 65.7716 23.1119V51.5086C68.1143 50.2357 70.6071 49.2643 73.1913 48.6173C75.2316 48.0967 77.3175 47.7765 79.4194 47.6612H79.5029C79.8546 47.6434 80.2062 47.6332 80.5679 47.6306V44.7216C77.8367 44.7567 75.1193 45.1178 72.4728 45.7972C71.4938 46.0515 70.5477 46.3261 69.6598 46.6313L68.6479 46.9746V24.8334L69.0805 24.6249C72.3817 23.0595 75.9522 22.1486 79.5965 21.9421C79.6268 21.9399 79.6573 21.9399 79.6876 21.9421C80.0898 21.9218 80.4946 21.9116 80.8917 21.9116H81.3269H81.3471C81.5571 21.9167 81.767 21.9218 81.977 21.9345Z"/>
<path fill="#AFB1B8" style="fill: var(--colorClientLogoAccent, #AFB1B8)" d="M89.1108 24.9326C88.4455 24.9326 87.7878 24.9097 87.1528 24.8614C86.3939 24.8054 85.6147 24.7139 84.8761 24.5893C84.4258 24.513 83.9831 24.4215 83.553 24.3223V52.3935C85.3737 52.8443 87.2433 53.0647 89.1184 53.0496C91.5931 53.0395 94.0571 52.7227 96.4546 52.1061C99.1853 51.4243 101.807 50.3585 104.241 48.9402V21.0496C101.899 22.3218 99.4069 23.294 96.8239 23.9434C94.3032 24.5908 91.7125 24.9231 89.1108 24.9326ZM100.335 25.4183L101.347 25.0775V47.2263L100.915 47.4348C99.2552 48.2243 97.5224 48.8469 95.7412 49.2937C93.5782 49.8533 91.3545 50.1412 89.1209 50.1506C88.4531 50.1506 87.7903 50.1227 87.1477 50.0667L86.4546 50.0057V47.3178V27.2288L87.2616 27.2822C87.8485 27.3204 88.4556 27.3382 89.1159 27.3382C91.9514 27.3281 94.7749 26.966 97.5221 26.26C98.4657 26.0108 99.4043 25.7311 100.335 25.4183Z"/>
<path fill="#AFB1B8" style="fill: var(--colorClientLogoAccent, #AFB1B8)" d="M67.7372 61.2124C67.5917 61.0615 67.4163 60.943 67.2224 60.8646C67.0285 60.7862 66.8203 60.7496 66.6114 60.7572C66.3888 60.7542 66.1678 60.7957 65.9613 60.8793C65.7719 60.9547 65.5998 61.068 65.4554 61.2124C65.3125 61.3572 65.2013 61.5304 65.129 61.721C65.0497 61.9207 65.0102 62.1341 65.0127 62.3491V66.1431C65.0036 66.4104 65.0546 66.6764 65.1619 66.9212C65.2515 67.1156 65.3808 67.2889 65.5414 67.4298C65.693 67.5575 65.871 67.6495 66.0625 67.6994C66.247 67.7512 66.4376 67.7777 66.6291 67.7782C66.8404 67.7803 67.0496 67.7351 67.2413 67.646C67.431 67.563 67.6028 67.4438 67.7473 67.295C67.8882 67.1476 68.0005 66.9752 68.0787 66.7864C68.1598 66.5951 68.2011 66.3892 68.2001 66.1812V65.7566H67.2085V66.0948C67.2114 66.2103 67.1916 66.3252 67.1503 66.433C67.118 66.5137 67.0688 66.5866 67.0061 66.6466C66.9446 66.6962 66.8742 66.7334 66.7986 66.7559C66.7317 66.7782 66.6617 66.7902 66.5912 66.7915C66.5027 66.8018 66.413 66.7885 66.3313 66.7527C66.2495 66.717 66.1786 66.6602 66.1257 66.5881C66.0322 66.4356 65.9864 66.2585 65.9942 66.0795V62.5423C65.988 62.3462 66.0297 62.1515 66.1156 61.9753C66.1671 61.8952 66.2399 61.8313 66.3258 61.7908C66.4117 61.7503 66.5072 61.7349 66.6013 61.7464C66.6868 61.7434 66.7717 61.7612 66.8488 61.7984C66.9259 61.8356 66.9929 61.8911 67.044 61.96C67.155 62.1057 67.213 62.2852 67.2085 62.4686V62.7966H68.19V62.4101C68.192 62.1831 68.1508 61.9578 68.0686 61.7464C67.9953 61.5476 67.8825 61.3659 67.7372 61.2124Z"/>
<path fill="#AFB1B8" style="fill: var(--colorClientLogoAccent, #AFB1B8)" d="M73.6289 61.1691C73.3127 60.9021 72.9136 60.7546 72.5006 60.7521C72.2986 60.7529 72.0983 60.7891 71.9087 60.8589C71.7161 60.9279 71.5384 61.0332 71.385 61.1691C71.2207 61.3168 71.0896 61.498 71.0005 61.7006C70.9006 61.9323 70.8514 62.183 70.8563 62.4355V66.0744C70.8495 66.3304 70.8987 66.5847 71.0005 66.8195C71.0902 67.0151 71.2215 67.1887 71.385 67.328C71.5366 67.4688 71.7147 67.5777 71.9087 67.6485C72.0983 67.7183 72.2986 67.7544 72.5006 67.7553C72.7027 67.7549 72.903 67.7187 73.0926 67.6485C73.2899 67.5767 73.4719 67.468 73.6289 67.328C73.7871 67.1861 73.9145 67.013 74.0033 66.8195C74.1051 66.5847 74.1543 66.3304 74.1475 66.0744V62.4355C74.1524 62.183 74.1032 61.9323 74.0033 61.7006C73.915 61.5001 73.7877 61.3194 73.6289 61.1691ZM73.1659 66.0744C73.1743 66.1714 73.1609 66.269 73.1268 66.3601C73.0926 66.4512 73.0386 66.5334 72.9686 66.6008C72.8376 66.7106 72.6725 66.7708 72.5019 66.7708C72.3313 66.7708 72.1661 66.7106 72.0352 66.6008C71.9652 66.5334 71.9112 66.4512 71.877 66.3601C71.8429 66.269 71.8295 66.1714 71.8378 66.0744V62.4355C71.8295 62.3385 71.8429 62.2409 71.877 62.1498C71.9112 62.0587 71.9652 61.9764 72.0352 61.9091C72.1661 61.7993 72.3313 61.7391 72.5019 61.7391C72.6725 61.7391 72.8376 61.7993 72.9686 61.9091C73.0386 61.9764 73.0926 62.0587 73.1268 62.1498C73.1609 62.2409 73.1743 62.3385 73.1659 62.4355V66.0744Z"/>
<path fill="#AFB1B8" style="fill: var(--colorClientLogoAccent, #AFB1B8)" d="M81.3673 67.6994V60.8107H80.4136L79.1614 64.4572H79.1437L77.8814 60.8107H76.9378V67.6994H77.9218V63.5087H77.9395L78.9034 66.4712H79.3941L80.3656 63.5087H80.3833V67.6994H81.3673Z"/>
<path fill="#AFB1B8" style="fill: var(--colorClientLogoAccent, #AFB1B8)" d="M86.958 61.2937C86.8065 61.1237 86.6152 60.9943 86.4015 60.9173C86.1712 60.8424 85.9301 60.8063 85.6881 60.8105H84.2259V67.6993H85.2074V65.0089H85.7134C86.0196 65.0228 86.3243 64.958 86.5988 64.8207C86.8219 64.6968 87.008 64.515 87.1376 64.2943C87.2512 64.1111 87.3277 63.9071 87.3628 63.6942C87.4014 63.435 87.4192 63.173 87.4159 62.911C87.4254 62.5802 87.3931 62.2495 87.3197 61.9269C87.2543 61.6885 87.1298 61.4706 86.958 61.2937ZM86.452 63.3941C86.4478 63.5188 86.4167 63.6412 86.361 63.7527C86.3049 63.8586 86.2161 63.9434 86.108 63.9942C85.9626 64.0593 85.804 64.0889 85.6451 64.0807H85.1973V61.7387H85.7032C85.8556 61.7312 86.0075 61.7609 86.146 61.8251C86.2474 61.8834 86.328 61.9724 86.3762 62.0794C86.4298 62.2004 86.459 62.331 86.4622 62.4634C86.4622 62.6084 86.4622 62.7609 86.4622 62.9211C86.4622 63.0813 86.4723 63.2466 86.4622 63.3941H86.452Z"/>
<path fill="#AFB1B8" style="fill: var(--colorClientLogoAccent, #AFB1B8)" d="M91.6076 60.8107H90.8032L89.2853 67.6994H90.2669L90.5553 66.2194H91.8935L92.1819 67.6994H93.1634L91.6076 60.8107ZM90.702 65.2811L91.1852 62.784H91.2029L91.6835 65.2811H90.702Z"/>
<path fill="#AFB1B8" style="fill: var(--colorClientLogoAccent, #AFB1B8)" d="M97.9497 64.9607H97.932L96.4495 60.8107H95.506V67.6994H96.4875V63.557H96.5077L98.0078 67.6994H98.9312V60.8107H97.9497V64.9607Z"/>
<path fill="#AFB1B8" style="fill: var(--colorClientLogoAccent, #AFB1B8)" d="M103.948 60.8107L103.158 63.5494H103.138L102.349 60.8107H101.309L102.657 64.7878V67.6994H103.639V64.7878L104.987 60.8107H103.948Z"/>
<path fill="#AFB1B8" style="fill: var(--colorClientLogoAccent, #AFB1B8)" d="M65 69.6445H65.4731V70.9719H65.7943V69.6445H66.2649V69.3724H65V69.6445Z"/>
<path fill="#AFB1B8" style="fill: var(--colorClientLogoAccent, #AFB1B8)" d="M68.9767 69.3724L68.3569 70.9719H68.6984L68.83 70.6083H69.4675L69.6041 70.9719H69.9532L69.3182 69.3724H68.9767ZM68.9261 70.3387L69.1437 69.7462L69.3612 70.3387H68.9261Z"/>
<path fill="#AFB1B8" style="fill: var(--colorClientLogoAccent, #AFB1B8)" d="M72.9079 70.3821H73.2773V70.5881C73.1694 70.6746 73.0358 70.722 72.8978 70.7229C72.8333 70.7265 72.7689 70.7145 72.7099 70.688C72.6509 70.6614 72.5991 70.6211 72.5588 70.5703C72.474 70.4485 72.4322 70.3017 72.4399 70.1533C72.4399 69.7973 72.5942 69.6193 72.9003 69.6193C72.9809 69.6112 73.0617 69.6325 73.128 69.6791C73.1944 69.7257 73.2419 69.7947 73.2621 69.8735L73.5783 69.8125C73.51 69.4997 73.2849 69.3421 72.9003 69.3421C72.6947 69.3366 72.4947 69.4103 72.3413 69.5481C72.2607 69.6276 72.1983 69.7239 72.1586 69.8302C72.1188 69.9365 72.1026 70.0502 72.1111 70.1634C72.1017 70.3823 72.1749 70.5966 72.316 70.7636C72.3943 70.8444 72.4892 70.9071 72.594 70.9475C72.6988 70.9879 72.8111 71.0049 72.9231 70.9975C73.1734 71.0045 73.4165 70.9133 73.6011 70.7432V70.1126H72.9079V70.3821Z"/>
<path fill="#AFB1B8" style="fill: var(--colorClientLogoAccent, #AFB1B8)" d="M76.9226 69.3724H76.5988V70.9719H77.7195V70.6998H76.9226V69.3724Z"/>
<path fill="#AFB1B8" style="fill: var(--colorClientLogoAccent, #AFB1B8)" d="M80.3175 69.3724H79.9937V70.9719H80.3175V69.3724Z"/>
<path fill="#AFB1B8" style="fill: var(--colorClientLogoAccent, #AFB1B8)" d="M83.6365 70.4405L82.9813 69.3724H82.6676V70.9719H82.9686V69.9268L83.6112 70.9719H83.9325V69.3724H83.6365V70.4405Z"/>
<path fill="#AFB1B8" style="fill: var(--colorClientLogoAccent, #AFB1B8)" d="M86.6367 70.2675H87.4336V69.9954H86.6367V69.6445H87.4943V69.3724H86.3129V70.9719H87.5272V70.6998H86.6367V70.2675Z"/>
<path fill="#AFB1B8" style="fill: var(--colorClientLogoAccent, #AFB1B8)" d="M93.9122 70.0031H93.2823V69.3724H92.961V70.9719H93.2823V70.2726H93.9122V70.9719H94.2335V69.3724H93.9122V70.0031Z"/>
<path fill="#AFB1B8" style="fill: var(--colorClientLogoAccent, #AFB1B8)" d="M96.9302 70.2675H97.7296V69.9954H96.9302V69.6445H97.7903V69.3724H96.6089V70.9719H97.8207V70.6998H96.9302V70.2675Z"/>
<path fill="#AFB1B8" style="fill: var(--colorClientLogoAccent, #AFB1B8)" d="M101.023 70.2676C101.302 70.2244 101.443 70.0769 101.443 69.8226C101.451 69.7546 101.441 69.6856 101.413 69.623C101.386 69.5603 101.342 69.5063 101.286 69.4666C101.142 69.3938 100.98 69.3614 100.818 69.3725H100.14V70.972H100.462V70.3032H100.525C100.593 70.299 100.662 70.3112 100.725 70.3388C100.772 70.3678 100.811 70.4079 100.839 70.4558L101.188 70.9644H101.572L101.377 70.6516C101.291 70.4972 101.17 70.3656 101.023 70.2676ZM100.699 70.0464H100.462V69.6446H100.715C100.825 69.6357 100.936 69.6486 101.041 69.6827C101.064 69.7034 101.083 69.7291 101.095 69.7579C101.107 69.7867 101.113 69.8179 101.111 69.8492C101.11 69.8804 101.101 69.911 101.087 69.9385C101.072 69.966 101.051 69.9899 101.026 70.0082C100.92 70.0406 100.81 70.0535 100.699 70.0464Z"/>
<path fill="#AFB1B8" style="fill: var(--colorClientLogoAccent, #AFB1B8)" d="M104.11 70.2675H104.906V69.9954H104.11V69.6445H104.97V69.3724H103.786V70.9719H105V70.6998H104.11V70.2675Z"/>
</symbol>
<symbol id="client-logo-3" viewBox="0 0 170 90" fill="none">
<rect stroke="#AFB1B8" style="stroke: var(--colorClientLogoAccent, #AFB1B8)" x="0.5" y="0.5" width="169" height="89" rx="3.5"/>
<path fill="#AFB1B8" style="fill: var(--colorClientLogoAccent, #AFB1B8)" d="M71.3455 65.7946C71.3605 65.795 71.3753 65.7982 71.389 65.8041C71.4027 65.81 71.415 65.8184 71.4252 65.8289L71.631 66.0446C71.4713 66.2191 71.2738 66.3588 71.0523 66.4539C70.7928 66.5577 70.5131 66.6078 70.2317 66.6009C69.9674 66.6061 69.7047 66.5594 69.4601 66.4637C69.2395 66.3758 69.0412 66.2437 68.8788 66.0764C68.713 65.9029 68.5853 65.6996 68.5033 65.4784C68.4134 65.2318 68.369 64.9723 68.3721 64.7113C68.3684 64.4486 68.4164 64.1875 68.5135 63.9417C68.6034 63.7191 68.7389 63.5158 68.9122 63.3436C69.0879 63.1749 69.298 63.0423 69.5295 62.9539C69.7829 62.8604 70.0526 62.8138 70.3243 62.8167C70.5767 62.8108 70.8277 62.8534 71.0625 62.9417C71.2663 63.0259 71.4533 63.1428 71.6155 63.2873L71.4432 63.5177C71.4313 63.5339 71.4165 63.548 71.3995 63.5593C71.3792 63.5726 71.3546 63.5787 71.33 63.5765C71.3033 63.5747 71.2776 63.5663 71.2554 63.552L71.1629 63.4907L71.0342 63.4123C70.9787 63.3832 70.9211 63.3578 70.8619 63.3363C70.7856 63.3103 70.7074 63.2898 70.6278 63.275C70.5269 63.2573 70.4244 63.2491 70.3218 63.2505C70.1261 63.2482 69.932 63.2832 69.7507 63.3534C69.5817 63.4185 69.4292 63.5171 69.3032 63.6427C69.1749 63.7762 69.0761 63.9329 69.0125 64.1034C68.9401 64.2985 68.9044 64.5043 68.9071 64.7113C68.904 64.9214 68.9397 65.1305 69.0125 65.3289C69.0753 65.498 69.1723 65.6537 69.2981 65.7872C69.4159 65.9117 69.5619 66.0089 69.725 66.0715C69.8929 66.1379 70.0731 66.1712 70.2549 66.1696C70.3599 66.1711 70.4648 66.1646 70.5687 66.15C70.7383 66.1302 70.901 66.0741 71.0445 65.9858C71.1165 65.9405 71.1845 65.8897 71.2477 65.8338C71.2742 65.8098 71.309 65.7958 71.3455 65.7946Z"/>
<path fill="#AFB1B8" style="fill: var(--colorClientLogoAccent, #AFB1B8)" d="M77.2871 64.7108C77.2903 64.9709 77.2432 65.2292 77.1482 65.473C77.0644 65.6941 76.9323 65.8958 76.7608 66.0648C76.5892 66.2338 76.382 66.3662 76.1528 66.4533C75.6492 66.6363 75.0925 66.6363 74.589 66.4533C74.3613 66.3648 74.1554 66.2321 73.9845 66.0636C73.8131 65.8916 73.68 65.6882 73.5936 65.4657C73.4083 64.972 73.4083 64.4325 73.5936 63.9388C73.6813 63.7162 73.8141 63.5122 73.9845 63.3384C74.1568 63.1752 74.3626 63.0476 74.589 62.9635C75.0919 62.7772 75.6499 62.7772 76.1528 62.9635C76.3813 63.0519 76.588 63.1846 76.7598 63.3531C76.9292 63.5235 77.0612 63.7243 77.1482 63.9437C77.2435 64.1892 77.2906 64.4492 77.2871 64.7108ZM76.747 64.7108C76.751 64.5028 76.718 64.2956 76.6492 64.0981C76.5916 63.929 76.4979 63.7729 76.374 63.6399C76.2534 63.5139 76.1049 63.4152 75.9393 63.3507C75.5734 63.2167 75.1684 63.2167 74.8024 63.3507C74.6368 63.4152 74.4884 63.5139 74.3678 63.6399C74.2422 63.7722 74.1475 63.9284 74.09 64.0981C73.9591 64.4971 73.9591 64.9246 74.09 65.3235C74.148 65.4931 74.2427 65.6492 74.3678 65.7818C74.4885 65.907 74.637 66.0049 74.8024 66.0685C75.169 66.1991 75.5728 66.1991 75.9393 66.0685C76.1048 66.0049 76.2533 65.907 76.374 65.7818C76.4974 65.6484 76.591 65.4925 76.6492 65.3235C76.7183 65.1261 76.7513 64.9189 76.747 64.7108Z"/>
<path fill="#AFB1B8" style="fill: var(--colorClientLogoAccent, #AFB1B8)" d="M81.3408 65.3532L81.3948 65.4904C81.4154 65.4414 81.4334 65.3973 81.454 65.3532C81.4736 65.3071 81.4959 65.2621 81.5209 65.2184L82.8352 62.942C82.861 62.9028 82.8841 62.8783 82.9098 62.8709C82.9448 62.8608 82.9814 62.8566 83.0179 62.8587H83.4062V66.5613H82.9458V63.8388C82.9458 63.8045 82.9458 63.7653 82.9458 63.7237C82.9434 63.6812 82.9434 63.6387 82.9458 63.5962L81.6238 65.9046C81.607 65.9391 81.5801 65.9684 81.5464 65.9888C81.5126 66.0092 81.4734 66.02 81.4334 66.0197H81.3588C81.3188 66.0203 81.2794 66.0097 81.2456 65.9892C81.2118 65.9687 81.185 65.9393 81.1685 65.9046L79.8078 63.5815C79.8078 63.6256 79.8078 63.6698 79.8078 63.7139C79.8078 63.758 79.8078 63.7972 79.8078 63.8315V66.5539H79.3629V62.8587H79.7512C79.7877 62.8566 79.8243 62.8608 79.8593 62.8709C79.8912 62.886 79.9166 62.9111 79.9313 62.942L81.274 65.2209C81.3003 65.263 81.3227 65.3073 81.3408 65.3532Z"/>
<path fill="#AFB1B8" style="fill: var(--colorClientLogoAccent, #AFB1B8)" d="M86.2871 65.1692V66.5562H85.7726V62.8585H86.9198C87.1364 62.8546 87.3523 62.8818 87.5603 62.9394C87.7268 62.9843 87.8812 63.0629 88.013 63.1697C88.1272 63.2699 88.2153 63.394 88.2702 63.5324C88.3309 63.6832 88.3606 63.8438 88.3576 64.0053C88.3599 64.1675 88.3275 64.3284 88.2625 64.4782C88.2006 64.6201 88.1056 64.7466 87.9847 64.8482C87.8527 64.9595 87.6976 65.043 87.5294 65.0933C87.3292 65.1542 87.1197 65.1832 86.9095 65.179L86.2871 65.1692ZM86.2871 64.7723H86.9095C87.0447 64.7739 87.1793 64.7549 87.3082 64.7159C87.4145 64.6818 87.5125 64.6277 87.5963 64.5566C87.6736 64.4888 87.7334 64.405 87.7712 64.3116C87.8133 64.2128 87.8343 64.107 87.8329 64.0004C87.8389 63.8976 87.8213 63.7948 87.7813 63.6992C87.7413 63.6035 87.68 63.5174 87.6014 63.4466C87.4049 63.3004 87.1581 63.2296 86.9095 63.2481H86.2871V64.7723Z"/>
<path fill="#AFB1B8" style="fill: var(--colorClientLogoAccent, #AFB1B8)" d="M93.201 66.5612H92.7946C92.7538 66.5626 92.7138 66.5505 92.6814 66.5268C92.6522 66.5038 92.6293 66.4744 92.6145 66.4411L92.2647 65.5466H90.508L90.1453 66.4411C90.132 66.4738 90.1098 66.5025 90.081 66.5244C90.0483 66.5495 90.0072 66.5625 89.9652 66.5612H89.5588L91.1021 62.8582H91.6371L93.201 66.5612ZM90.6546 65.1863H92.1053L91.4931 63.6791C91.4463 63.5658 91.4076 63.4495 91.3773 63.3311L91.3182 63.5247C91.3002 63.5836 91.2796 63.6375 91.2616 63.6816L90.6546 65.1863Z"/>
<path fill="#AFB1B8" style="fill: var(--colorClientLogoAccent, #AFB1B8)" d="M95.4233 62.8754C95.4541 62.8915 95.4805 62.9141 95.5005 62.9416L97.7511 65.7329C97.7511 65.6887 97.7511 65.6446 97.7511 65.603C97.7511 65.5613 97.7511 65.5197 97.7511 65.4804V62.8582H98.2115V66.5612H97.9543C97.9178 66.5622 97.8816 66.5547 97.8489 66.5391C97.8171 66.5215 97.7892 66.4982 97.7666 66.4705L95.5185 63.6817C95.521 63.7241 95.521 63.7666 95.5185 63.8091C95.5185 63.8508 95.5185 63.8875 95.5185 63.9218V66.5612H95.0581V62.8582H95.3308C95.3626 62.8574 95.3942 62.8632 95.4233 62.8754Z"/>
<path fill="#AFB1B8" style="fill: var(--colorClientLogoAccent, #AFB1B8)" d="M102.003 65.0884V66.5588H101.488V65.0884L100.066 62.8584H100.526C100.566 62.8561 100.605 62.8674 100.637 62.8902C100.665 62.914 100.689 62.9422 100.707 62.9735L101.596 64.4121C101.632 64.4733 101.663 64.5297 101.689 64.5836C101.715 64.6375 101.735 64.689 101.753 64.7405L101.82 64.5812C101.845 64.5229 101.874 64.4664 101.908 64.4121L102.785 62.9637C102.803 62.9348 102.826 62.9084 102.852 62.8853C102.882 62.8599 102.922 62.8467 102.962 62.8486H103.428L102.003 65.0884Z"/>
<path fill="#AFB1B8" style="fill: var(--colorClientLogoAccent, #AFB1B8)" d="M81.0862 56.6443C81.31 56.6712 81.5363 56.6933 81.7652 56.7129C85.2358 55.2337 88.1718 52.8127 90.2062 49.7526C92.2406 46.6924 93.2832 43.1289 93.2036 39.5073L89.3788 35.8633C90.1565 39.7191 89.7927 43.705 88.3282 47.3751C86.8636 51.0452 84.3561 54.2546 81.0862 56.6443Z"/>
<path fill="#AFB1B8" style="fill: var(--colorClientLogoAccent, #AFB1B8)" d="M79.7204 56.4748L79.8233 56.4944C83.3175 54.1132 85.9816 50.788 87.4709 46.9488C88.9603 43.1097 89.2065 38.9331 88.1776 34.9592L82.7298 29.769C84.9333 34.0353 85.8202 38.8098 85.2875 43.5374C84.7547 48.265 82.8242 52.7514 79.7204 56.4748Z"/>
<path fill="#AFB1B8" style="fill: var(--colorClientLogoAccent, #AFB1B8)" d="M98.1961 43.7861C97.2706 47.7654 95.0227 51.3541 91.7863 54.0196C90.8411 54.8023 89.8216 55.4996 88.7409 56.1025C91.3763 55.3646 93.7985 54.0598 95.8209 52.289C97.8433 50.5181 99.4119 48.3284 100.406 45.8887L98.1961 43.7861Z"/>
<path fill="#AFB1B8" style="fill: var(--colorClientLogoAccent, #AFB1B8)" d="M97.3293 43.2002L94.1835 40.2031C94.1234 43.6201 93.1038 46.9594 91.2307 49.8739C89.3576 52.7885 86.6994 55.1718 83.5323 56.7764H83.5477C84.2535 56.7761 84.9586 56.736 85.6595 56.6563C88.6193 55.5053 91.2339 53.6742 93.2702 51.3262C95.3065 48.9782 96.701 46.1865 97.3293 43.2002Z"/>
<path fill="#AFB1B8" style="fill: var(--colorClientLogoAccent, #AFB1B8)" d="M80.1757 27.5803L76.4229 24C73.0681 25.2351 70.1828 27.4064 68.1446 30.2297C66.1065 33.053 65.0105 36.3968 65 39.8234V39.8234C65.0126 43.6097 66.3502 47.2838 68.8012 50.2643C71.2521 53.2448 74.6764 55.3614 78.5321 56.2791C81.974 52.2838 83.9892 47.347 84.2847 42.186C84.5803 37.025 83.1409 31.9086 80.1757 27.5803Z"/>
<path fill="#AFB1B8" style="fill: var(--colorClientLogoAccent, #AFB1B8)" d="M106 42.649C105.986 38.1568 104.107 33.8522 100.773 30.6757C97.4391 27.4992 92.921 25.709 88.2059 25.6961C86.0271 25.6939 83.8668 26.077 81.8347 26.8258L104.812 48.7166C105.598 46.7815 106.001 44.7241 106 42.649Z"/>
</symbol>
<symbol id="client-logo-4" viewBox="0 0 170 90" fill="none">
<rect stroke="#AFB1B8" style="stroke: var(--colorClientLogoAccent, #AFB1B8)" x="0.5" y="0.5" width="169" height="89" rx="3.5"/>
<path fill="#AFB1B8" style="fill: var(--colorClientLogoAccent, #AFB1B8)" d="M57.402 36.8306H57.3993C55.1369 36.8306 53.303 38.6177 53.303 40.8223V40.8249C53.303 43.0295 55.1369 44.8167 57.3993 44.8167H57.402C59.6643 44.8167 61.4982 43.0295 61.4982 40.8249V40.8223C61.4982 38.6177 59.6643 36.8306 57.402 36.8306Z"/>
<path fill="#AFB1B8" style="fill: var(--colorClientLogoAccent, #AFB1B8)" d="M87.6367 35.5545C87.6303 32.4924 86.3794 29.5575 84.1578 27.3921C81.9362 25.2266 78.9249 24.007 75.7827 24V24C72.6396 24.0056 69.6268 25.2246 67.404 27.3902C65.1813 29.5558 63.9297 32.4915 63.9232 35.5545V52.4402C63.9232 52.4402 87.634 49.8667 87.6367 35.5571V35.5545Z"/>
<path fill="#AFB1B8" style="fill: var(--colorClientLogoAccent, #AFB1B8)" d="M44.9999 57.9823C45.0056 60.1129 45.8765 62.1547 47.4222 63.6615C48.9679 65.1683 51.0628 66.0177 53.2491 66.0239C55.435 66.0177 57.5295 65.1687 59.0751 63.6625C60.6208 62.1562 61.492 60.1151 61.4984 57.9849V46.2356C61.4984 46.2356 44.9999 48.0276 44.9999 57.9823ZM53.2491 60.0874C52.8219 60.0874 52.4042 59.964 52.049 59.7326C51.6938 59.5013 51.4169 59.1726 51.2534 58.7879C51.0899 58.4032 51.0471 57.98 51.1305 57.5716C51.2138 57.1632 51.4196 56.7881 51.7217 56.4937C52.0238 56.1993 52.4087 55.9988 52.8277 55.9176C53.2467 55.8364 53.6811 55.8781 54.0758 56.0374C54.4705 56.1967 54.8079 56.4665 55.0453 56.8127C55.2826 57.1589 55.4093 57.5659 55.4093 57.9823C55.4104 58.2594 55.3553 58.534 55.2472 58.7903C55.1391 59.0466 54.9802 59.2796 54.7795 59.476C54.5788 59.6723 54.3403 59.828 54.0777 59.9343C53.8151 60.0406 53.5335 60.0953 53.2491 60.0953V60.0874Z"/>
<path fill="#AFB1B8" style="fill: var(--colorClientLogoAccent, #AFB1B8)" d="M70.0891 58.7812H68.4016V60.5244H67.5227V56.2588H70.3V56.9707H68.4016V58.0723H70.0891V58.7812ZM74.3137 58.4883C74.3137 58.9082 74.2395 59.2764 74.091 59.5928C73.9426 59.9092 73.7297 60.1533 73.4524 60.3252C73.177 60.4971 72.8606 60.583 72.5031 60.583C72.1496 60.583 71.8342 60.498 71.5569 60.3281C71.2795 60.1582 71.0647 59.916 70.9123 59.6016C70.76 59.2852 70.6828 58.9219 70.6809 58.5117V58.3008C70.6809 57.8809 70.7561 57.5117 70.9065 57.1934C71.0588 56.873 71.2727 56.6279 71.5481 56.458C71.8254 56.2861 72.1418 56.2002 72.4973 56.2002C72.8528 56.2002 73.1682 56.2861 73.4436 56.458C73.7209 56.6279 73.9348 56.873 74.0852 57.1934C74.2375 57.5117 74.3137 57.8799 74.3137 58.2979V58.4883ZM73.4231 58.2949C73.4231 57.8477 73.343 57.5078 73.1828 57.2754C73.0227 57.043 72.7942 56.9268 72.4973 56.9268C72.2024 56.9268 71.9748 57.042 71.8147 57.2725C71.6545 57.501 71.5735 57.8369 71.5715 58.2803V58.4883C71.5715 58.9238 71.6516 59.2617 71.8117 59.502C71.9719 59.7422 72.2024 59.8623 72.5031 59.8623C72.7981 59.8623 73.0246 59.7471 73.1828 59.5166C73.341 59.2842 73.4211 58.9463 73.4231 58.5029V58.2949ZM77.1643 59.4053C77.1643 59.2393 77.1057 59.1123 76.9885 59.0244C76.8713 58.9346 76.6604 58.8408 76.3557 58.7432C76.051 58.6436 75.8098 58.5459 75.632 58.4502C75.1477 58.1885 74.9055 57.8359 74.9055 57.3926C74.9055 57.1621 74.9699 56.957 75.0988 56.7773C75.2297 56.5957 75.4162 56.4541 75.6584 56.3525C75.9026 56.251 76.176 56.2002 76.4787 56.2002C76.7834 56.2002 77.0549 56.2559 77.2932 56.3672C77.5315 56.4766 77.716 56.6318 77.8469 56.833C77.9797 57.0342 78.0461 57.2627 78.0461 57.5186H77.1672C77.1672 57.3232 77.1057 57.1719 76.9826 57.0645C76.8596 56.9551 76.6867 56.9004 76.4641 56.9004C76.2492 56.9004 76.0822 56.9463 75.9631 57.0381C75.844 57.1279 75.7844 57.2471 75.7844 57.3955C75.7844 57.5342 75.8537 57.6504 75.9924 57.7441C76.133 57.8379 76.3391 57.9258 76.6106 58.0078C77.1106 58.1582 77.4748 58.3447 77.7033 58.5674C77.9319 58.79 78.0461 59.0674 78.0461 59.3994C78.0461 59.7686 77.9065 60.0586 77.6272 60.2695C77.3479 60.4785 76.9719 60.583 76.4992 60.583C76.1711 60.583 75.8723 60.5234 75.6028 60.4043C75.3332 60.2832 75.1272 60.1182 74.9846 59.9092C74.844 59.7002 74.7737 59.458 74.7737 59.1826H75.6555C75.6555 59.6533 75.9367 59.8887 76.4992 59.8887C76.7082 59.8887 76.8713 59.8467 76.9885 59.7627C77.1057 59.6768 77.1643 59.5576 77.1643 59.4053ZM81.8547 56.9707H80.5481V60.5244H79.6692V56.9707H78.3801V56.2588H81.8547V56.9707ZM84.925 58.6758H83.2375V59.8184H85.218V60.5244H82.3586V56.2588H85.2121V56.9707H83.2375V57.9873H84.925V58.6758ZM87.3127 58.9629H86.6125V60.5244H85.7336V56.2588H87.3186C87.8225 56.2588 88.2112 56.3711 88.4846 56.5957C88.758 56.8203 88.8947 57.1377 88.8947 57.5479C88.8947 57.8389 88.8313 58.082 88.7043 58.2773C88.5793 58.4707 88.3889 58.625 88.133 58.7402L89.0559 60.4834V60.5244H88.1125L87.3127 58.9629ZM86.6125 58.251H87.3215C87.5422 58.251 87.7131 58.1953 87.8342 58.084C87.9553 57.9707 88.0158 57.8154 88.0158 57.6182C88.0158 57.417 87.9582 57.2588 87.843 57.1436C87.7297 57.0283 87.5549 56.9707 87.3186 56.9707H86.6125V58.251ZM91.9387 59.0215V60.5244H91.0598V56.2588H92.7238C93.0442 56.2588 93.3254 56.3174 93.5676 56.4346C93.8117 56.5518 93.9992 56.7188 94.1301 56.9355C94.261 57.1504 94.3264 57.3955 94.3264 57.6709C94.3264 58.0889 94.1828 58.4189 93.8957 58.6611C93.6106 58.9014 93.2151 59.0215 92.7092 59.0215H91.9387ZM91.9387 58.3096H92.7238C92.9563 58.3096 93.133 58.2549 93.2541 58.1455C93.3772 58.0361 93.4387 57.8799 93.4387 57.6768C93.4387 57.4678 93.3772 57.2988 93.2541 57.1699C93.1311 57.041 92.9612 56.9746 92.7444 56.9707H91.9387V58.3096ZM97.4992 58.6758H95.8117V59.8184H97.7922V60.5244H94.9328V56.2588H97.7863V56.9707H95.8117V57.9873H97.4992V58.6758ZM101.577 56.9707H100.271V60.5244H99.3918V56.9707H98.1028V56.2588H101.577V56.9707ZM104.648 58.6758H102.96V59.8184H104.941V60.5244H102.081V56.2588H104.935V56.9707H102.96V57.9873H104.648V58.6758ZM107.035 58.9629H106.335V60.5244H105.456V56.2588H107.041C107.545 56.2588 107.934 56.3711 108.207 56.5957C108.481 56.8203 108.617 57.1377 108.617 57.5479C108.617 57.8389 108.554 58.082 108.427 58.2773C108.302 58.4707 108.112 58.625 107.856 58.7402L108.779 60.4834V60.5244H107.835L107.035 58.9629ZM106.335 58.251H107.044C107.265 58.251 107.436 58.1953 107.557 58.084C107.678 57.9707 107.738 57.8154 107.738 57.6182C107.738 57.417 107.681 57.2588 107.566 57.1436C107.452 57.0283 107.278 56.9707 107.041 56.9707H106.335V58.251ZM111.5 59.4053C111.5 59.2393 111.442 59.1123 111.324 59.0244C111.207 58.9346 110.996 58.8408 110.692 58.7432C110.387 58.6436 110.146 58.5459 109.968 58.4502C109.484 58.1885 109.241 57.8359 109.241 57.3926C109.241 57.1621 109.306 56.957 109.435 56.7773C109.566 56.5957 109.752 56.4541 109.994 56.3525C110.238 56.251 110.512 56.2002 110.815 56.2002C111.119 56.2002 111.391 56.2559 111.629 56.3672C111.867 56.4766 112.052 56.6318 112.183 56.833C112.316 57.0342 112.382 57.2627 112.382 57.5186H111.503C111.503 57.3232 111.442 57.1719 111.319 57.0645C111.196 56.9551 111.023 56.9004 110.8 56.9004C110.585 56.9004 110.418 56.9463 110.299 57.0381C110.18 57.1279 110.12 57.2471 110.12 57.3955C110.12 57.5342 110.19 57.6504 110.328 57.7441C110.469 57.8379 110.675 57.9258 110.947 58.0078C111.447 58.1582 111.811 58.3447 112.039 58.5674C112.268 58.79 112.382 59.0674 112.382 59.3994C112.382 59.7686 112.242 60.0586 111.963 60.2695C111.684 60.4785 111.308 60.583 110.835 60.583C110.507 60.583 110.208 60.5234 109.939 60.4043C109.669 60.2832 109.463 60.1182 109.321 59.9092C109.18 59.7002 109.11 59.458 109.11 59.1826H109.991C109.991 59.6533 110.273 59.8887 110.835 59.8887C111.044 59.8887 111.207 59.8467 111.324 59.7627C111.442 59.6768 111.5 59.5576 111.5 59.4053Z"/>
</symbol>
<symbol id="client-logo-5" viewBox="0 0 170 90" fill="none">
<rect stroke="#AFB1B8" style="stroke: var(--colorClientLogoAccent, #AFB1B8)" x="0.5" y="0.5" width="169" height="89" rx="3.5"/>
<path fill="#AFB1B8" style="fill: var(--colorClientLogoAccent, #AFB1B8)" d="M60.4876 61.2778C60.7175 61.5634 60.84 61.9212 60.8336 62.2884C60.8453 62.528 60.8032 62.7671 60.7104 62.988C60.6176 63.209 60.4765 63.4062 60.2975 63.565C59.851 63.9037 59.2977 64.0692 58.7393 64.0313H56V57.6263H58.6832C59.2129 57.5909 59.7383 57.7413 60.1698 58.0518C60.3431 58.1974 60.4803 58.3815 60.5706 58.5895C60.6609 58.7974 60.7019 59.0236 60.6902 59.2502C60.706 59.6035 60.5954 59.9509 60.3786 60.2296C60.1704 60.4841 59.8826 60.6605 59.5621 60.7302C59.9255 60.7968 60.2535 60.9909 60.4876 61.2778ZM57.2746 60.3109H58.4215C58.6821 60.3303 58.941 60.2548 59.1507 60.0982C59.2368 60.0198 59.3038 59.9226 59.3465 59.8141C59.3892 59.7056 59.4064 59.5887 59.3969 59.4724C59.405 59.3565 59.3874 59.2403 59.3453 59.1321C59.3033 59.0239 59.2379 58.9264 59.1538 58.8466C58.9378 58.6856 58.6709 58.6088 58.4028 58.6307H57.2746V60.3109ZM59.2629 62.7672C59.3549 62.6869 59.4273 62.5865 59.4743 62.4736C59.5213 62.3607 59.5418 62.2385 59.534 62.1163C59.541 61.9928 59.5197 61.8693 59.4716 61.7554C59.4235 61.6414 59.35 61.5401 59.2567 61.4593C59.0323 61.2922 58.7563 61.2102 58.4776 61.2277H57.2746V62.9893H58.4931C58.7674 63.0052 59.0389 62.9269 59.2629 62.7672Z"/>
<path fill="#AFB1B8" style="fill: var(--colorClientLogoAccent, #AFB1B8)" d="M65.9725 64.0313L64.4798 61.5281H63.9188V64.0313H62.6349V57.6263H65.0657C65.6784 57.5834 66.2841 57.7783 66.7579 58.1708C67.0977 58.5184 67.3026 58.9764 67.3358 59.4624C67.3689 59.9483 67.2281 60.4301 66.9386 60.821C66.6387 61.1659 66.2291 61.3959 65.7793 61.4718L67.3687 64.0313H65.9725ZM63.9188 60.6552H64.9691C65.6983 60.6552 66.0629 60.3318 66.0629 59.6852C66.0704 59.5531 66.0504 59.421 66.0042 59.2971C65.9581 59.1732 65.8868 59.0603 65.7949 58.9655C65.5645 58.7731 65.2677 58.6798 64.9691 58.7058H63.9064L63.9188 60.6552Z"/>
<path fill="#AFB1B8" style="fill: var(--colorClientLogoAccent, #AFB1B8)" d="M72.9907 62.742H70.4321L69.9803 64.0311H68.634L70.9838 57.6981H72.4391L74.7795 64.0311H73.4333L72.9907 62.742ZM72.6479 61.772L71.713 59.0686L70.7781 61.772H72.6479Z"/>
<path fill="#AFB1B8" style="fill: var(--colorClientLogoAccent, #AFB1B8)" d="M81.7759 64.0312H80.5013L77.6435 59.6757V64.0312H76.372V57.6262H77.6435L80.5013 62.0068V57.6262H81.7759V64.0312Z"/>
<path fill="#AFB1B8" style="fill: var(--colorClientLogoAccent, #AFB1B8)" d="M89.0496 62.4981C88.7861 62.9817 88.3845 63.375 87.8965 63.6276C87.3417 63.909 86.7259 64.0477 86.1046 64.0313H83.8358V57.6263H86.1046C86.7249 57.61 87.3398 57.7453 87.8965 58.0206C88.3844 58.2674 88.7864 58.6569 89.0496 59.1376C89.3119 59.6585 89.4486 60.2341 89.4486 60.8178C89.4486 61.4016 89.3119 61.9772 89.0496 62.4981ZM87.5911 62.3448C87.9549 61.9193 88.1549 61.377 88.1549 60.8163C88.1549 60.2555 87.9549 59.7133 87.5911 59.2878C87.1514 58.9024 86.578 58.7067 85.9955 58.7433H85.1104V62.8892H85.9955C86.578 62.9258 87.1514 62.7302 87.5911 62.3448Z"/>
<path fill="#AFB1B8" style="fill: var(--colorClientLogoAccent, #AFB1B8)" d="M73.7885 22C73.7885 22 90.24 28.236 89.891 37.2599V52.5229C89.891 52.5229 73.4519 46.2838 73.7947 37.2599L73.7885 22Z"/>
<path fill="#AFB1B8" style="fill: var(--colorClientLogoAccent, #AFB1B8)" d="M104.548 48.9496C107.655 46.8028 111.248 45.4731 115 45.0822V40.3043C110.677 41.977 107.01 45.0101 104.548 48.9496Z"/>
<path fill="#AFB1B8" style="fill: var(--colorClientLogoAccent, #AFB1B8)" d="M102.681 50.389C105.224 45.2478 109.633 41.2805 115 39.3032V25.5358C115 25.5358 91.5708 34.4189 92.0663 47.2695V69C92.0663 69 93.1103 68.6027 94.7526 67.858C94.7526 67.1633 94.7526 66.4625 94.8274 65.7584C95.3123 59.7926 98.1371 54.2643 102.681 50.389Z"/>
<path fill="#AFB1B8" style="fill: var(--colorClientLogoAccent, #AFB1B8)" d="M100.453 58.4617C100.576 56.9546 100.85 55.4639 101.272 54.0123C98.443 57.3589 96.7297 61.5117 96.3732 65.8867C96.3389 66.2997 96.3202 66.7127 96.3109 67.1383C97.6416 66.4968 99.1904 65.6958 100.817 64.754C100.402 62.6842 100.279 60.5659 100.453 58.4617Z"/>
<path fill="#AFB1B8" style="fill: var(--colorClientLogoAccent, #AFB1B8)" d="M101.384 58.54C101.228 60.4437 101.326 62.3599 101.674 64.2378C108.075 60.3923 115.268 54.4504 114.991 47.2695V46.6437C110.417 47.1575 106.139 49.1648 102.812 52.3571C102.033 54.3355 101.552 56.4193 101.384 58.54Z"/>
</symbol>
<symbol id="client-logo-6" viewBox="0 0 170 90" fill="none">
<rect stroke="#AFB1B8" style="stroke: var(--colorClientLogoAccent, #AFB1B8)" x="0.5" y="0.5" width="169" height="89" rx="3.5"/>
<path fill="#AFB1B8" style="fill: var(--colorClientLogoAccent, #AFB1B8)" d="M85.7405 43.3533C85.3226 42.7432 85.1226 42.022 85.1701 41.2962V38.3135C85.1701 37.3992 85.3592 36.7044 85.7373 36.2291C86.1155 35.7537 86.7651 35.517 87.686 35.5191C88.5513 35.5191 89.1656 35.7213 89.5288 36.1259C89.925 36.6421 90.1178 37.2733 90.0736 37.91V38.6109H88.5256V37.9009C88.5311 37.6685 88.5161 37.4361 88.4808 37.2061C88.4585 37.0488 88.3806 36.9033 88.2596 36.7934C88.1007 36.675 87.9004 36.6175 87.6988 36.6326C87.4867 36.6176 87.2764 36.6782 87.1091 36.8025C86.9742 36.9243 86.8844 37.0838 86.8527 37.2576C86.8083 37.5011 86.7879 37.7479 86.7918 37.995V41.6147C86.7674 41.964 86.8357 42.3134 86.9905 42.6312C87.0675 42.7387 87.1744 42.824 87.2994 42.8775C87.4244 42.9311 87.5626 42.9508 87.6988 42.9346C87.8971 42.9501 88.0939 42.8912 88.2468 42.7708C88.373 42.6523 88.4541 42.4976 88.4776 42.3308C88.5137 42.0907 88.5298 41.8482 88.5256 41.6056V40.8714H90.0736V41.5419C90.1171 42.2056 89.929 42.8644 89.5384 43.4171C89.1827 43.86 88.5769 44.0815 87.686 44.0815C86.795 44.0815 86.1219 43.8449 85.7405 43.3533Z"/>
<path fill="#AFB1B8" style="fill: var(--colorClientLogoAccent, #AFB1B8)" d="M92.1857 43.3837C91.7947 42.9194 91.5992 42.2428 91.5992 41.3477V38.2104C91.5992 37.3244 91.7947 36.6538 92.1857 36.1987C92.5767 35.7436 93.2305 35.517 94.1471 35.5191C95.0573 35.5191 95.7079 35.7456 96.0989 36.1987C96.4899 36.6538 96.6886 37.3244 96.6886 38.2104V41.3477C96.6886 42.2337 96.4899 42.9134 96.0925 43.3806C95.6951 43.8479 95.0477 44.0815 94.1471 44.0815C93.2466 44.0815 92.5799 43.8449 92.1857 43.3837ZM94.8682 42.6312C95.0083 42.3404 95.072 42.0219 95.0541 41.7027V37.8615C95.0721 37.5485 95.0094 37.2361 94.8714 36.9512C94.7929 36.8414 94.6833 36.7547 94.5553 36.7011C94.4272 36.6474 94.2858 36.629 94.1471 36.6478C94.0081 36.6294 93.8664 36.6481 93.7379 36.7017C93.6094 36.7553 93.4992 36.8417 93.4196 36.9512C93.2787 37.2353 93.2148 37.5481 93.2337 37.8615V41.7209C93.2143 42.0402 93.2781 42.3591 93.4196 42.6494C93.5099 42.7473 93.6212 42.8257 93.7461 42.8795C93.8711 42.9332 94.0067 42.961 94.1439 42.961C94.2812 42.961 94.4168 42.9332 94.5417 42.8795C94.6666 42.8257 94.778 42.7473 94.8682 42.6494V42.6312Z"/>
<path fill="#AFB1B8" style="fill: var(--colorClientLogoAccent, #AFB1B8)" d="M98.5505 35.6106H100.217L101.47 41.3992L102.752 35.6106H104.374L104.537 43.9658H103.339L103.211 38.159L101.973 43.9658H101.012L99.7299 38.1378L99.6114 43.9658H98.3999L98.5505 35.6106Z"/>
<path fill="#AFB1B8" style="fill: var(--colorClientLogoAccent, #AFB1B8)" d="M106.406 35.6106H109.002C110.497 35.6106 111.245 36.4014 111.245 37.9831C111.245 39.498 110.458 40.2544 108.883 40.2524H107.999V43.9658H106.396L106.406 35.6106ZM108.624 39.1814C108.782 39.2005 108.943 39.1867 109.095 39.1411C109.247 39.0956 109.387 39.0193 109.505 38.9175C109.689 38.6353 109.77 38.3039 109.736 37.974C109.744 37.7191 109.718 37.4642 109.659 37.2155C109.636 37.1324 109.596 37.0545 109.541 36.9863C109.486 36.918 109.417 36.8608 109.338 36.8181C109.116 36.7171 108.87 36.6711 108.624 36.6846H108.002V39.1814H108.624Z"/>
<path fill="#AFB1B8" style="fill: var(--colorClientLogoAccent, #AFB1B8)" d="M113.556 35.6106H115.277L117.043 43.9658H115.549L115.2 42.0393H113.665L113.306 43.9658H111.79L113.556 35.6106ZM115.027 41.0715L114.428 37.5644L113.828 41.0715H115.027Z"/>
<path fill="#AFB1B8" style="fill: var(--colorClientLogoAccent, #AFB1B8)" d="M118.469 35.6106H119.591L121.738 40.3768V35.6106H123.068V43.9658H122.001L119.841 38.9903V43.9658H118.466L118.469 35.6106Z"/>
<path fill="#AFB1B8" style="fill: var(--colorClientLogoAccent, #AFB1B8)" d="M126.183 40.7801L124.398 35.6223H125.901L126.991 38.9354L128.013 35.6223H129.484L127.722 40.7801V43.9658H126.183V40.7801Z"/>
<path fill="#AFB1B8" style="fill: var(--colorClientLogoAccent, #AFB1B8)" d="M88.2148 47.6189V48.0558H86.9072V51.4509H86.3592V48.0558H85.0452V47.6189H88.2148Z"/>
<path fill="#AFB1B8" style="fill: var(--colorClientLogoAccent, #AFB1B8)" d="M92.3138 51.4512H91.8908C91.8478 51.4537 91.8054 51.4407 91.7722 51.4148C91.7402 51.3925 91.7157 51.362 91.7017 51.3268L91.3235 50.4166H89.5095L89.1313 51.3268C89.1206 51.3649 89.1008 51.4001 89.0736 51.43C89.0401 51.4554 88.9979 51.4683 88.955 51.4664H88.532L90.1345 47.6345H90.6921L92.3138 51.4512ZM89.6601 50.0283H91.1729L90.5319 48.4688C90.4846 48.3509 90.445 48.2303 90.4133 48.1078C90.3909 48.1806 90.3716 48.2504 90.3524 48.3111L90.2947 48.4719L89.6601 50.0283Z"/>
<path fill="#AFB1B8" style="fill: var(--colorClientLogoAccent, #AFB1B8)" d="M95.0765 51.0748C95.1769 51.0798 95.2774 51.0798 95.3778 51.0748C95.4644 51.0664 95.5502 51.0512 95.6342 51.0293C95.7127 51.0111 95.7898 50.9878 95.8649 50.9595C95.9354 50.9322 96.0059 50.8988 96.0797 50.8655V50.0037H95.4387C95.4228 50.0046 95.407 50.0023 95.3921 49.9971C95.3772 49.9919 95.3636 49.9838 95.3521 49.9734C95.3416 49.9648 95.3333 49.954 95.3277 49.9419C95.3222 49.9299 95.3196 49.9167 95.3201 49.9036V49.6093H96.5636V51.0779C96.4621 51.1466 96.3549 51.2075 96.2431 51.2599C96.1288 51.3133 96.0098 51.357 95.8874 51.3904C95.7563 51.4269 95.6223 51.4533 95.4867 51.4693C95.3314 51.4856 95.1752 51.4937 95.0188 51.4936C94.7424 51.4958 94.4682 51.4473 94.2112 51.351C93.9712 51.2596 93.7532 51.1234 93.5702 50.9504C93.3918 50.7757 93.2513 50.5695 93.1568 50.3436C93.0557 50.0896 93.0057 49.8199 93.0093 49.5486C93.006 49.2755 93.0548 49.0041 93.1536 48.7475C93.2457 48.5204 93.3865 48.3138 93.567 48.1406C93.7499 47.9682 93.968 47.833 94.208 47.7431C94.4824 47.6454 94.7737 47.597 95.0669 47.6005C95.2161 47.6003 95.3651 47.6115 95.5124 47.6339C95.6426 47.654 95.7704 47.6865 95.8938 47.731C96.0059 47.7709 96.1133 47.8217 96.2143 47.8827C96.3125 47.9426 96.4057 48.0095 96.4931 48.083L96.3393 48.3197C96.3272 48.3413 96.3093 48.3594 96.2873 48.3722C96.2653 48.3851 96.2401 48.392 96.2143 48.3925C96.1788 48.3914 96.1444 48.3809 96.1149 48.3621C96.0668 48.3379 96.0156 48.3075 95.9579 48.2711C95.8897 48.2307 95.8179 48.1961 95.7431 48.1679C95.6476 48.1317 95.549 48.1032 95.4483 48.083C95.314 48.0596 95.1777 48.0484 95.0413 48.0496C94.8298 48.0474 94.6199 48.0834 94.4227 48.1558C94.2444 48.2235 94.0836 48.3271 93.9516 48.4592C93.8188 48.597 93.7173 48.7592 93.6535 48.9356C93.5103 49.3507 93.5103 49.7981 93.6535 50.2131C93.7237 50.3933 93.8328 50.5576 93.974 50.6955C94.1055 50.827 94.265 50.9304 94.4419 50.999C94.6457 51.0652 94.8617 51.091 95.0765 51.0748Z"/>
<path fill="#AFB1B8" style="fill: var(--colorClientLogoAccent, #AFB1B8)" d="M100.185 51.014H101.935V51.4509H99.6499V47.6189H100.198L100.185 51.014Z"/>
<path fill="#AFB1B8" style="fill: var(--colorClientLogoAccent, #AFB1B8)" d="M103.755 51.4509H103.207V47.6189H103.755V51.4509Z"/>
<path fill="#AFB1B8" style="fill: var(--colorClientLogoAccent, #AFB1B8)" d="M105.794 47.6371C105.826 47.6547 105.855 47.6785 105.877 47.7069L108.22 50.5955C108.217 50.5501 108.217 50.5045 108.22 50.459C108.22 50.4165 108.22 50.374 108.22 50.3346V47.6038H108.697V51.4512H108.422C108.381 51.4543 108.34 51.447 108.303 51.43C108.27 51.4109 108.241 51.3862 108.217 51.3571L105.877 48.4716C105.877 48.5171 105.877 48.5595 105.877 48.602C105.877 48.6445 105.877 48.684 105.877 48.7204V51.4512H105.419V47.6189H105.704C105.735 47.619 105.766 47.6252 105.794 47.6371Z"/>
<path fill="#AFB1B8" style="fill: var(--colorClientLogoAccent, #AFB1B8)" d="M112.732 47.6189V48.0406H110.79V49.3059H112.364V49.7124H110.79V51.0202H112.732V51.4419H110.226V47.6189H112.732Z"/>
<path fill="#AFB1B8" style="fill: var(--colorClientLogoAccent, #AFB1B8)" d="M55.3035 23.9539L79.6385 30.4953V53.4173L55.3035 46.879V23.9539ZM53.7427 22V47.9925L81.1961 55.3743V29.3848L53.7427 22Z"/>
<path fill="#AFB1B8" style="fill: var(--colorClientLogoAccent, #AFB1B8)" d="M68.4565 67.4402L41 60.0522V34.0625L68.4565 41.4474V67.4402Z"/>
<path fill="#AFB1B8" style="fill: var(--colorClientLogoAccent, #AFB1B8)" d="M54.1978 23.6596L78.2155 30.1189L68.0014 39.7912L43.9806 33.3288L54.1978 23.6596ZM53.7427 22L41 34.0631L68.4565 41.4478L81.196 29.3847L53.7427 22Z"/>
<path fill="#AFB1B8" style="fill: var(--colorClientLogoAccent, #AFB1B8)" d="M70.0013 65.978L81.196 55.3774L70.0013 52.3647V65.978Z"/>
</symbol>
</defs>
</svg>
